<?xml version="1.0" standalone="no"?>
<!DOCTYPE svg PUBLIC "-//W3C//DTD SVG 1.1//EN" "http://www.w3.org/Graphics/SVG/1.1/DTD/svg11.dtd" >
<svg xmlns="http://www.w3.org/2000/svg">
<metadata>
Created by FontPrep 20130207 at Tue Mar 17 17:17:38 2015
 By Vaibhav Kanwal
Copyright (c) 2010 Linotype GmbH, www.linotype.com. All rights reserved. This font software may not be reproduced, modified, disclosed or transferred without the express written approval of Linotype GmbH.
</metadata>
<defs>
<font id="4259aa35ace4c12937b753d1ff841883" horiz-adv-x='1024' >
  <font-face 
    font-family="DINNextLTPro-Regular"
    font-weight="400"
    font-stretch="normal"
    units-per-em="2048"
    panose-1="2 0 5 3 0 0 0 0 0 0"
    ascent="1536"
    descent="-512"
    x-height="981"
    cap-height="1393"
    bbox="-14 -391 1712 1538"
    underline-thickness="102"
    underline-position="-102"
    unicode-range="U+0020-007E"
  />
<missing-glyph horiz-adv-x="1024" 
 />
    <glyph glyph-name=".notdef" horiz-adv-x="1024" 
 />
    <glyph glyph-name=".null" horiz-adv-x="0" 
 />
    <glyph glyph-name="nonmarkingreturn" horiz-adv-x="681" 
 />
    <glyph glyph-name="space" unicode=" " horiz-adv-x="491" 
 />
    <glyph glyph-name="exclam" unicode="!" horiz-adv-x="589" 
d="M197 197q0 20 20 20h156q20 0 20 -20v-177q0 -20 -20 -20h-156q-20 0 -20 20v177zM252 377q-20 0 -21 20l-32 975q0 20 20 21h152q20 0 20 -21l-33 -975q0 -20 -20 -20h-86z" />
    <glyph glyph-name="quotedbl" unicode="&#x22;" horiz-adv-x="673" 
d="M158 1030q-20 0 -21 21v321q0 20 21 21h90q20 0 20 -21v-321q0 -20 -20 -21h-90zM426 1030q-20 0 -20 21v321q0 20 20 21h90q20 0 21 -21v-321q0 -20 -21 -21h-90z" />
    <glyph glyph-name="numbersign" unicode="#" horiz-adv-x="1058" 
d="M641 567l39 287h-272l-39 -287h272zM70 438q-20 0 -21 21v88q0 20 21 20h166l38 287h-153q-20 0 -21 20v87q0 20 21 20h172l53 391q2 20 23 21h92q20 0 18 -21l-53 -391h272l54 391q2 20 22 21h92q20 0 19 -21l-54 -391h158q20 0 21 -20v-87q0 -20 -21 -20h-176l-39 -287
h162q20 0 20 -20v-88q0 -20 -20 -21h-178l-58 -418q-2 -20 -22 -20h-92q-20 0 -19 20l58 418h-273l-57 -418q-2 -20 -23 -20h-92q-20 0 -18 20l57 418h-149z" />
    <glyph glyph-name="dollar" unicode="$" 
d="M821 381q0 94 -47 147q-41 53 -158 82v-467q96 16 150 80t55 158zM516 1251q-90 -12 -147 -71q-53 -62 -53 -152t42 -145q43 -55 158 -84v452zM516 1518q0 20 21 20h59q20 0 20 -20v-105q173 -18 306 -102q14 -12 4 -29l-66 -100q-12 -16 -29 -6q-104 63 -215 75v-471
q188 -35 281 -129q92 -98 92 -260q0 -161 -97 -273t-276 -134v-109q0 -20 -20 -20h-59q-20 0 -21 20v102q-212 4 -391 138q-6 4 -7 13t5 15l76 103q12 14 28 2q43 -33 121 -69t168 -42v492q-184 33 -276 131t-93 250q0 164 103 280q104 104 266 123v105z" />
    <glyph glyph-name="percent" unicode="%" horiz-adv-x="1593" 
d="M1309 348q0 58 -2 78v49l-4 31q-25 90 -113 90t-113 -72l-4 -18l-4 -31v-49q-2 -20 -2 -78t2 -78v-49l4 -31q19 -88 110 -89q90 -1 115 71q0 8 5 18l4 31v49q2 20 2 78zM946 528l6 29q25 72 86 115q62 43 150 43t149 -43t86 -115q-1 -2 7 -27t9 -71q1 -45 1 -111
q0 -150 -10 -180l-7 -29q-25 -73 -86 -115t-149 -42t-150 42t-86 115l-6 29q-10 30 -10 182t10 178zM516 866l4 19l2 11l2 17v52q2 20 2 77t-2 78v51q0 21 -4 29q-19 90 -110 90t-115 -71l-4 -19l-2 -11l-2 -18v-51q-2 -20 -2 -78t2 -77v-52q0 -20 4 -28q19 -90 110 -90
t115 71zM406 676q-88 0 -150 43q-61 43 -86 115l-6 28q0 2 -4 26t-5 56q-1 30 -1 98t1 98t5 56q4 25 4 27l6 28q25 72 86 115q62 43 150 43t149 -43t86 -115l6 -28q0 -3 4 -27t5 -55t1 -99t-1 -98t-5 -56q-4 -24 -4 -26l-6 -28q-25 -72 -86 -115t-149 -43zM1163 1415h99
q18 0 10 -20l-809 -1397q-12 -20 -31 -21h-98q-8 0 -15 7q0 8 3 14l808 1397q12 20 33 20z" />
    <glyph glyph-name="ampersand" unicode="&#x26;" horiz-adv-x="1296" 
d="M305 338q0 -92 57 -150q56 -58 144 -59q88 0 148 36t141 124l-283 368q-113 -87 -160 -157t-47 -162zM565 1270q-72 0 -114 -43q-39 -45 -39 -92t26 -109q40 -57 56 -78q16 -20 30 -38t23 -31q68 53 92 79q37 31 61 69t25 97q0 58 -44 102t-116 44zM143 360q1 98 65 198
q64 101 212 220q-97 126 -136 195q-38 69 -38 138q0 132 90 220q102 86 233 85t230 -89q86 -86 86 -211q1 -90 -51 -166q-22 -33 -80 -94q-59 -55 -117 -100l264 -340l141 174q12 16 29 4l80 -70q16 -12 4 -28l-160 -203l68 -88q23 -27 40 -38t42 -11h31q20 0 20 -21v-115
q0 -20 -20 -20h-56q-61 0 -97 18t-81 78l-55 72q-96 -102 -180 -146q-83 -44 -181 -44t-174 26q-68 31 -114 78q-95 104 -95 278z" />
    <glyph glyph-name="quotesingle" unicode="'" horiz-adv-x="405" 
d="M158 1030q-20 0 -21 21v321q0 20 21 21h90q20 0 20 -21v-321q0 -20 -20 -21h-90z" />
    <glyph glyph-name="parenleft" unicode="(" horiz-adv-x="583" 
d="M129 672q0 209 60 422t184 401q14 20 33 21h71q20 0 12 -21q-194 -392 -194 -823q0 -215 52 -431t142 -393q8 -20 -12 -20h-71q-19 0 -33 20q-123 188 -183 402t-61 422z" />
    <glyph glyph-name="parenright" unicode=")" horiz-adv-x="583" 
d="M289 673q0 432 -195 822q-8 20 12 21h72q18 0 33 -21q125 -190 184 -400q121 -430 -2 -847q-57 -209 -182 -400q-14 -20 -33 -20h-72q-20 0 -12 20q90 176 142 392t53 433z" />
    <glyph glyph-name="asterisk" unicode="*" horiz-adv-x="700" 
d="M319 811q-20 0 -20 20v183l-156 -92q-10 -6 -18 -3t-10 9l-31 57q-12 20 8 29l156 86l-156 90q-20 8 -8 29l31 57q2 6 10 9t18 -3l156 -94v184q0 20 20 21h62q20 0 20 -21l-2 -184l158 94q20 12 29 -6l30 -57q12 -20 -8 -29l-155 -90l155 -86q20 -8 8 -29l-30 -57
q-2 -6 -10 -9t-19 3l-158 92l2 -183q0 -20 -20 -20h-62z" />
    <glyph glyph-name="plus" unicode="+" 
d="M477 477q0 12 -12 12h-320q-20 0 -20 21v111q0 20 20 20h320q12 0 12 12v324q0 20 21 20h114q20 0 21 -20v-324q0 -12 12 -12h320q20 0 20 -20v-111q0 -20 -20 -21h-320q-12 0 -12 -12v-323q0 -20 -21 -21h-114q-20 0 -21 21v323z" />
    <glyph glyph-name="comma" unicode="," horiz-adv-x="471" 
d="M143 197q0 20 21 20h143q20 0 21 -20v-191q0 -32 -13 -45l-127 -168q-12 -14 -28 -14t-17 18v400z" />
    <glyph glyph-name="hyphen" unicode="-" horiz-adv-x="778" 
d="M117 465q-20 0 -21 20v119q0 20 21 21h545q20 0 20 -21v-119q0 -20 -20 -20h-545z" />
    <glyph glyph-name="period" unicode="." horiz-adv-x="483" 
d="M143 197q0 20 21 20h155q20 0 21 -20v-177q0 -20 -21 -20h-155q-20 0 -21 20v177z" />
    <glyph glyph-name="slash" unicode="/" horiz-adv-x="854" 
d="M604 1415h111q20 0 14 -20l-455 -1397q-6 -20 -26 -21h-109q-20 0 -14 21l453 1397q6 20 26 20z" />
    <glyph glyph-name="zero" unicode="0" 
d="M328 1010q-6 -46 -6 -252q0 -316 5 -385t17 -97q50 -139 211 -139q76 0 133 35q53 35 78 104q16 36 16 107q6 46 6 251q0 317 -5 385t-17 97q-25 70 -78 105q-57 35 -133 35t-133 -35q-53 -35 -78 -105q-16 -36 -16 -106zM162 292q-19 102 -19 416q0 313 21 394
q2 20 10 49q39 127 137 196q97 69 243 69t245 -68q119 -86 149 -248q19 -102 19 -415t-21 -394q-2 -20 -10 -49q-39 -127 -137 -196q-97 -69 -243 -69t-245 68q-119 84 -149 247z" />
    <glyph glyph-name="one" unicode="1" 
d="M500 1176h-4l-232 -162q-23 -16 -22 12v152q0 16 14 28l240 174q16 12 32 13h123q20 0 21 -21v-1352q0 -20 -21 -20h-131q-20 0 -20 20v1156z" />
    <glyph glyph-name="two" unicode="2" 
d="M162 127q0 14 10 29l502 639q49 61 71 118q27 53 27 136t-59 143q-55 63 -157 63t-160 -56q-56 -56 -70 -148q-2 -20 -23 -17l-125 27q-18 6 -16 24q14 136 112 226q45 45 120 75t164 29q176 0 284 -107t106 -272q0 -161 -135 -334l-430 -540v-2h545q20 0 20 -21v-119
q0 -20 -20 -20h-746q-20 0 -20 20v107z" />
    <glyph glyph-name="three" unicode="3" 
d="M551 -23q-174 0 -277 84q-108 78 -137 211q-2 18 17 25l125 31q18 6 25 -19q29 -105 151 -157q47 -14 96 -15q113 0 176 70q63 71 63 183t-69 179q-70 72 -186 72h-62q-20 0 -20 21v118q0 20 20 21h59q104 0 168 63q64 62 64 164t-58 164t-160 63q-102 0 -157 -49
q-51 -51 -70 -121q-6 -18 -24 -16l-123 31q-20 2 -16 24q8 55 41 111q39 59 82 92q45 39 116 66q154 49 318 -4q227 -101 227 -358q0 -178 -172 -292v-4q79 -32 131 -117q67 -101 67 -237q1 -175 -118 -292q-57 -56 -131 -81q-74 -31 -166 -31z" />
    <glyph glyph-name="four" unicode="4" 
d="M129 244q-20 0 -20 20v113q0 12 6 24l450 975q10 16 29 17h137q23 0 14 -19l-444 -968v-5h369q12 0 12 13v364q0 20 20 21h132q20 0 20 -21v-364q0 -12 12 -13h127q20 0 21 -20v-117q0 -20 -21 -20h-127q-12 0 -12 -13v-211q0 -20 -20 -20h-132q-20 0 -20 20v211
q0 12 -12 13h-541z" />
    <glyph glyph-name="five" unicode="5" 
d="M554 137q171 0 218 137q16 48 18 138t-4 136q-16 136 -94 181q-51 31 -128 31t-134 -39q-52 -47 -64 -79t-28 -32h-121q-20 0 -20 21v741q0 20 20 21h701q20 0 20 -21v-119q0 -20 -20 -20h-549q-12 0 -13 -12v-392h6q25 33 85 62t167 29t196 -58t122 -158q33 -99 34 -217
t-8 -168q-6 -61 -20 -96q-39 -119 -137 -182t-209 -63t-172 22q-131 38 -203 152q-33 55 -41 116q-4 23 17 25l120 31q20 2 27 -17q16 -74 74 -122t140 -48z" />
    <glyph glyph-name="six" unicode="6" 
d="M305 402q0 -118 68 -192q69 -74 183 -73q114 0 181 74q70 73 70 191t-70 188q-69 74 -183 74t-181 -74q-68 -70 -68 -188zM579 823q175 0 289 -110q115 -119 115 -313t-123 -308q-119 -115 -306 -115t-306 117t-119 309q0 147 92 318l354 657q6 14 27 15h139q20 0 13 -21
l-312 -577l4 -4q44 32 133 32z" />
    <glyph glyph-name="seven" unicode="7" 
d="M776 1233h-424q-12 0 -12 -12v-174q0 -20 -21 -21h-122q-20 0 -21 21v325q0 20 21 21h743q20 0 21 -21v-127q0 -4 -5 -20l-479 -1207q-7 -18 -26 -18h-138q-23 0 -12 23l475 1204v6z" />
    <glyph glyph-name="eight" unicode="8" 
d="M809 396q0 112 -69 184q-70 72 -186 72t-184 -72t-69 -186q0 -114 71 -186q70 -72 184 -71q114 0 185 72q68 75 68 187zM555 811q102 0 162 66q59 65 59 155t-59 160q-63 63 -161 63t-163 -63q-59 -70 -59 -160t60 -156t161 -65zM125 402q0 106 55 194t142 135v4
q-63 37 -115 113q-49 80 -49 166t26 166q33 74 80 123q120 112 291 112q170 0 293 -112q106 -110 104 -273q0 -102 -49 -182q-51 -76 -115 -113v-4q86 -47 142 -133q55 -88 55 -196t-33 -183q-68 -156 -223 -211q-80 -31 -175 -31t-173 31q-155 55 -223 211q-33 77 -33 183z
" />
    <glyph glyph-name="nine" unicode="9" 
d="M555 729q115 0 182 74q68 69 68 187t-68 192q-69 74 -183 74t-182 -74q-68 -72 -69 -191q0 -119 70 -188q67 -74 182 -74zM242 680q-115 119 -115 313q0 193 123 307q119 115 306 115q186 0 304 -112q121 -121 121 -314q0 -148 -92 -317l-354 -658q-8 -14 -27 -14h-139
q-20 0 -13 20l312 578l-4 4q-42 -30 -132 -31q-173 -3 -290 109z" />
    <glyph glyph-name="colon" unicode=":" horiz-adv-x="499" 
d="M152 197q0 20 20 20h156q20 0 20 -20v-177q0 -20 -20 -20h-156q-20 0 -20 20v177zM172 764q-20 0 -20 20v177q0 20 20 20h156q20 0 20 -20v-177q0 -20 -20 -20h-156z" />
    <glyph glyph-name="semicolon" unicode=";" horiz-adv-x="499" 
d="M158 197q0 20 20 20h144q20 0 20 -20v-191q0 -29 -12 -43l-127 -170q-13 -14 -29 -14t-16 18v400zM172 764q-20 0 -20 20v177q0 20 20 20h156q20 0 20 -20v-177q0 -20 -20 -20h-156z" />
    <glyph glyph-name="less" unicode="&#x3c;" 
d="M125 516v96q0 20 20 29l820 336q20 6 20 -12v-127q0 -18 -20 -27l-617 -244v-4l617 -244q20 -8 20 -26v-127q0 -18 -20 -12l-820 335q-20 6 -20 27z" />
    <glyph glyph-name="equal" unicode="=" 
d="M145 285q-20 0 -20 20v111q0 20 20 20h820q20 0 20 -20v-111q0 -20 -20 -20h-820zM145 694q-20 0 -20 21v110q0 20 20 21h820q20 0 20 -21v-110q0 -20 -20 -21h-820z" />
    <glyph glyph-name="greater" unicode="&#x3e;" 
d="M125 293q0 18 20 26l617 244v4l-617 244q-20 8 -20 27v127q0 18 20 12l820 -336q20 -8 20 -29v-96q0 -20 -20 -27l-820 -335q-20 -6 -20 12v127z" />
    <glyph glyph-name="question" unicode="?" horiz-adv-x="933" 
d="M358 197q0 20 21 20h156q20 0 20 -20v-177q0 -20 -20 -20h-156q-20 0 -21 20v177zM389 373q-20 0 -20 20v84q0 63 15 103t46 82l137 188q47 62 76 119q19 52 20 117t-53 117t-144 52q-174 0 -214 -194q-2 -20 -23 -17l-129 23q-20 2 -16 23q20 145 122 235t263 90
q160 0 268 -96q103 -103 103 -253q0 -76 -27 -135q-27 -60 -78 -130l-137 -189q-33 -42 -43 -72t-10 -81v-66q0 -20 -21 -20h-135z" />
    <glyph glyph-name="at" unicode="@" horiz-adv-x="1816" 
d="M894 827q-202 0 -202 -261q0 -134 19 -189q43 -127 183 -127t187 127q13 37 15 63t2 99q0 74 -4 96q0 29 -13 65q-47 127 -187 127zM854 115q-215 0 -283 200q-26 84 -26 197t7 162q24 170 128 239q70 49 172 49q175 1 242 -110h4v72q0 18 16 18h109q18 0 18 -18v-504
q0 -94 45 -134t92 -40q93 0 135 65q52 75 53 229q2 304 -179 491t-482 188q-151 -1 -275 -49q-246 -96 -341 -347q-47 -129 -47 -277q0 -289 180 -485q184 -184 481 -184q241 0 445 94q20 8 28 -8l33 -82q10 -16 -8 -26q-96 -51 -221 -84q-123 -27 -290 -27t-312 59
q-145 53 -255 163q-227 227 -227 585t226 575q110 109 260 167q150 59 324 59t322 -58q150 -58 259 -168q225 -225 225 -577q0 -115 -26 -199q-50 -160 -175 -211q-53 -27 -132 -27t-146 40q-63 45 -90 106h-2q-72 -143 -287 -143z" />
    <glyph glyph-name="A" unicode="A" horiz-adv-x="1243" 
d="M844 492l-219 632h-4l-222 -632h445zM690 1393q20 0 27 -21l477 -1352q6 -20 -14 -20h-144q-20 0 -26 20l-107 304h-563l-107 -304q-8 -20 -26 -20h-144q-20 0 -14 20l483 1352q6 20 25 21h133z" />
    <glyph glyph-name="B" unicode="B" horiz-adv-x="1236" 
d="M354 178q0 -12 13 -12h325q127 0 192 62q64 62 64 166t-64 168q-64 62 -192 63h-325q-12 0 -13 -13v-434zM682 791q115 0 179 58q65 57 65 159t-65 160t-179 59h-315q-12 0 -13 -13v-411q0 -12 13 -12h315zM172 1372q0 20 21 21h493q211 -1 315 -101t105 -266
q0 -125 -53 -197q-47 -72 -133 -106v-4q69 -17 141 -101q69 -94 69 -221q0 -197 -116 -297t-338 -100h-483q-20 0 -21 20v1352z" />
    <glyph glyph-name="C" unicode="C" horiz-adv-x="1159" 
d="M307 696q0 -194 8 -233q0 -42 19 -111q71 -203 289 -205q113 0 178 54q68 49 108 133q8 18 29 10l123 -59q14 -8 8 -27q-57 -135 -174 -208t-281 -73t-283 82q-142 97 -188 310q-20 77 -20 327t20 328q4 23 17 63q51 164 171 246t284 82q165 0 281 -73t173 -207
q6 -18 -8 -27l-123 -59q-20 -8 -29 10q-41 84 -108 133q-67 53 -179 53q-219 0 -288 -205q-17 -58 -19 -110q-8 -40 -8 -234z" />
    <glyph glyph-name="D" unicode="D" horiz-adv-x="1275" 
d="M623 1223h-256q-12 0 -13 -13v-1028q0 -12 13 -12h256q127 0 212 49t117 184q2 4 11 64l6 229l-6 230q-25 188 -136 254q-78 43 -204 43zM172 1372q0 20 21 21h469q360 0 454 -297q6 -18 14 -60q23 -71 23 -294q0 -321 -23 -386q-69 -356 -468 -356h-469q-20 0 -21 20
v1352z" />
    <glyph glyph-name="E" unicode="E" horiz-adv-x="1153" 
d="M172 1372q0 20 21 21h837q20 0 21 -21v-129q0 -20 -21 -20h-663q-12 0 -13 -13v-409q0 -12 13 -13h563q20 0 20 -20v-129q0 -20 -20 -21h-563q-12 0 -13 -12v-424q0 -12 13 -12h663q20 0 21 -20v-130q0 -20 -21 -20h-837q-20 0 -21 20v1352z" />
    <glyph glyph-name="F" unicode="F" horiz-adv-x="1138" 
d="M172 1372q0 20 21 21h837q20 0 21 -21v-129q0 -20 -21 -20h-663q-12 0 -13 -13v-424q0 -12 13 -12h563q20 0 20 -20v-129q0 -20 -20 -21h-563q-12 0 -13 -12v-572q0 -20 -20 -20h-141q-20 0 -21 20v1352z" />
    <glyph glyph-name="G" unicode="G" horiz-adv-x="1267" 
d="M307 696q0 -192 8 -231q0 -41 28 -127t99 -137q78 -53 191 -53t191 50q78 52 112 150q26 99 27 219q0 12 -13 13h-270q-20 0 -21 20v119q0 20 21 20h444q20 0 21 -20v-105q0 -106 -10 -176q-4 -63 -25 -131q-53 -162 -177 -246t-300 -84t-299 83q-146 98 -191 307
q-20 123 -20 304t8 279q15 94 29 140q51 160 174 242t303 83q98 0 166 -22q68 -17 130 -59q107 -73 167 -195q10 -18 -6 -29l-123 -59q-20 -10 -29 10q-51 92 -122 138q-72 46 -186 46q-230 0 -298 -207q-19 -65 -21 -110q-8 -40 -8 -232z" />
    <glyph glyph-name="H" unicode="H" horiz-adv-x="1337" 
d="M172 1372q0 20 21 21h141q20 0 20 -21v-571q0 -12 13 -13h604q12 0 12 13v571q0 20 21 21h141q20 0 20 -21v-1352q0 -20 -20 -20h-141q-20 0 -21 20v586q0 12 -12 12h-604q-12 0 -13 -12v-586q0 -20 -20 -20h-141q-20 0 -21 20v1352z" />
    <glyph glyph-name="I" unicode="I" horiz-adv-x="526" 
d="M172 1372q0 20 21 21h141q20 0 20 -21v-1352q0 -20 -20 -20h-141q-20 0 -21 20v1352z" />
    <glyph glyph-name="J" unicode="J" horiz-adv-x="1005" 
d="M403 147q123 0 191 72t68 227v926q0 20 20 21h141q20 0 21 -21v-926q0 -231 -121 -350t-326 -119q-98 0 -186 39t-143 105q-14 14 0 29l102 88q14 12 43 -15t74 -47q45 -29 116 -29z" />
    <glyph glyph-name="K" unicode="K" horiz-adv-x="1261" 
d="M172 1372q0 20 21 21h141q20 0 20 -21v-725l592 727q12 18 33 19h168q12 0 12 -9q6 -6 -4 -16l-434 -522l477 -823q16 -23 -12 -23h-164q-18 0 -29 18l-391 687l-248 -299v-386q0 -20 -20 -20h-141q-20 0 -21 20v1352z" />
    <glyph glyph-name="L" unicode="L" horiz-adv-x="1101" 
d="M172 1372q0 20 21 21h141q20 0 20 -21v-1190q0 -12 13 -12h663q20 0 21 -20v-130q0 -20 -21 -20h-837q-20 0 -21 20v1352z" />
    <glyph glyph-name="M" unicode="M" horiz-adv-x="1546" 
d="M172 1372q0 20 21 21h133q25 0 32 -21l416 -938h6l408 938q8 20 33 21h133q20 0 20 -21v-1352q0 -20 -20 -20h-129q-20 0 -21 20v969h-6l-346 -766q-8 -25 -37 -24h-82q-29 0 -39 24l-346 766h-6v-969q0 -20 -20 -20h-129q-20 0 -21 20v1352z" />
    <glyph glyph-name="N" unicode="N" horiz-adv-x="1339" 
d="M172 1372q0 20 21 21h131q27 0 34 -21l631 -1044h8v1044q0 20 21 21h129q20 0 20 -21v-1352q0 -20 -20 -20h-131q-27 0 -35 20l-633 1041h-6v-1041q0 -20 -20 -20h-129q-20 0 -21 20v1352z" />
    <glyph glyph-name="O" unicode="O" horiz-adv-x="1267" 
d="M633 1245q-115 0 -191 -53q-70 -53 -104 -154q-8 -25 -11 -46t-12 -68q-2 -38 -5 -86t-3 -142t3 -142t5 -85q7 -47 11 -69t12 -46q35 -100 104 -153q76 -54 191 -54q226 0 297 207q29 83 30 286q2 318 -30 398q-71 207 -297 207zM634 -23q-179 0 -301 83
q-145 98 -190 307q-20 69 -20 277q0 305 17 376q53 218 196 313q119 82 298 82t301 -84t173 -241q30 -102 33 -195q4 -92 4 -266q-1 -174 -13 -229q-12 -56 -24 -97q-51 -158 -173 -242t-301 -84z" />
    <glyph glyph-name="P" unicode="P" horiz-adv-x="1212" 
d="M678 731q129 0 201 66q71 67 71 181t-72 180t-200 65h-311q-12 0 -13 -13v-467q0 -12 13 -12h311zM193 0q-20 0 -21 20v1352q0 20 21 21h495q201 0 322 -115q57 -51 88 -131q32 -72 32 -170t-32 -170q-31 -80 -88 -131q-119 -115 -322 -115h-321q-12 0 -13 -12v-529
q0 -20 -20 -20h-141z" />
    <glyph glyph-name="Q" unicode="Q" horiz-adv-x="1267" 
d="M633 1245q-115 0 -191 -53q-70 -53 -104 -154q-8 -25 -11 -46t-12 -68q-2 -38 -5 -86t-3 -142t3 -142t5 -85q7 -47 11 -69t12 -46q35 -100 104 -153q76 -54 186 -54t181 43l-152 154q-12 12 0 29l91 98q16 12 28 0l144 -145l10 28q29 83 30 286q2 318 -30 398
q-71 207 -297 207zM635 -23q-180 0 -302 83q-145 98 -190 307q-20 69 -20 277q0 305 17 376q53 218 196 313q119 82 298 82t301 -84t173 -241q30 -102 33 -195q4 -92 4 -266t-17 -250t-43 -137q-10 -16 -30 -54l145 -143q12 -12 0 -29l-90 -96q-15 -15 -31 0l-143 141
q-121 -84 -301 -84z" />
    <glyph glyph-name="R" unicode="R" horiz-adv-x="1263" 
d="M692 760q121 0 191 59q68 61 67 172q0 111 -67 172q-70 59 -191 60h-325q-12 0 -13 -13v-438q0 -12 13 -12h325zM979 0q-18 0 -27 20l-278 570h-307q-12 0 -13 -12v-558q0 -20 -20 -20h-141q-20 0 -21 20v1352q0 20 21 21h503q195 0 316 -111q55 -45 88 -123t33 -168
q0 -141 -74 -239t-201 -140l297 -587q6 -9 3 -17t-15 -8h-164z" />
    <glyph glyph-name="S" unicode="S" horiz-adv-x="1210" 
d="M815 8q-98 -31 -221 -31t-281 52q-119 47 -209 123q-14 14 -2 30l91 107q12 14 28 2q188 -142 389 -144q144 1 226 65t82 164t-62 156q-84 63 -229 80l-70 11q-410 55 -410 385q0 94 32 169q67 156 235 209q86 29 196 29t227 -36q116 -36 189 -93q16 -12 4 -29l-69 -112
q-12 -14 -29 -4q-86 51 -166 78t-190 27t-177 -62q-67 -66 -67 -159t66 -149t227 -79l67 -11q205 -30 307 -124t103 -265q0 -96 -33 -168q-29 -74 -94 -133q-66 -53 -160 -88z" />
    <glyph glyph-name="T" unicode="T" horiz-adv-x="1099" 
d="M479 0q-20 0 -20 20v1190q0 12 -13 13h-380q-20 0 -21 20v129q0 20 21 21h968q20 0 21 -21v-129q0 -20 -21 -20h-381q-12 0 -12 -13v-1190q0 -20 -20 -20h-142z" />
    <glyph glyph-name="U" unicode="U" horiz-adv-x="1308" 
d="M655 -23q-229 0 -362 129q-131 131 -131 379v887q0 20 20 21h142q20 0 20 -21v-885q0 -170 86 -254q82 -86 223 -86t227 85t85 255v885q0 20 20 21h141q20 0 21 -21v-887q0 -248 -131 -379q-132 -129 -361 -129z" />
    <glyph glyph-name="V" unicode="V" horiz-adv-x="1150" 
d="M516 0q-18 0 -24 20l-451 1348q-8 23 14 25h140q23 0 28 -21l357 -1075h4l344 1075q6 20 26 21h142q23 0 14 -25l-448 -1348q-6 -20 -25 -20h-121z" />
    <glyph glyph-name="W" unicode="W" horiz-adv-x="1685" 
d="M1163 0q-16 0 -22 20l-297 1039h-4l-295 -1039q-6 -20 -25 -20h-112q-20 0 -23 20l-336 1352q-6 20 17 21h135q23 0 24 -21l248 -1034h4l289 1034q6 20 25 21h104q18 0 25 -21l294 -1034h5l241 1034q6 20 27 21h133q18 0 16 -21l-336 -1352q-2 -20 -24 -20h-113z" />
    <glyph glyph-name="X" unicode="X" horiz-adv-x="1142" 
d="M920 0q-18 0 -29 18l-320 531h-2l-319 -531q-12 -18 -31 -18h-160q-8 0 -14 8q0 10 4 17l420 700l-383 643q-4 6 -4 16q6 8 14 9h160q18 0 31 -19l282 -471h2l285 471q8 18 29 19h159q12 0 13 -9q4 -4 0 -16l-385 -643l422 -700q4 -12 0 -17q0 -8 -13 -8h-161z" />
    <glyph glyph-name="Y" unicode="Y" horiz-adv-x="1077" 
d="M469 0q-20 0 -20 20v549l-412 801q-10 23 16 23h146q18 0 30 -21l312 -596h4l309 596q8 20 29 21h141q27 0 16 -23l-411 -801v-549q0 -20 -21 -20h-139z" />
    <glyph glyph-name="Z" unicode="Z" horiz-adv-x="1097" 
d="M121 0q-20 0 -21 20v130q0 14 9 22l679 1049v2h-643q-20 0 -20 20v129q0 20 20 21h832q20 0 20 -21v-129q0 -14 -8 -22l-682 -1049v-2h670q20 0 20 -20v-130q0 -20 -20 -20h-856z" />
    <glyph glyph-name="bracketleft" unicode="[" horiz-adv-x="575" 
d="M184 -172q-20 0 -20 20v1647q0 20 20 21h295q20 0 21 -21v-98q0 -20 -21 -21h-141q-12 0 -12 -12v-1384q0 -12 12 -13h141q20 0 21 -20v-99q0 -20 -21 -20h-295z" />
    <glyph glyph-name="backslash" unicode="\" horiz-adv-x="854" 
d="M604 -23q-20 0 -26 21l-453 1397q-6 20 14 20h109q20 0 26 -20l455 -1397q6 -20 -14 -21h-111z" />
    <glyph glyph-name="bracketright" unicode="]" horiz-adv-x="575" 
d="M96 -172q-20 0 -20 20v99q0 20 20 20h142q12 0 12 13v1384q0 12 -12 12h-142q-20 0 -20 21v98q0 20 20 21h295q20 0 21 -21v-1647q0 -20 -21 -20h-295z" />
    <glyph glyph-name="asciicircum" unicode="^" 
d="M852 557q-20 0 -29 21l-266 598h-4l-266 -598q-8 -20 -27 -21h-121q-20 0 -12 21l354 794q8 20 29 21h90q20 0 29 -21l354 -794q8 -20 -12 -21h-119z" />
    <glyph glyph-name="underscore" unicode="_" horiz-adv-x="974" 
d="M0 -270v114h975v-114h-975z" />
    <glyph glyph-name="grave" unicode="`" horiz-adv-x="862" 
d="M489 1141q-25 0 -38 20l-189 252q-4 6 -4 14q6 6 14 7h136q25 0 36 -21l154 -252q8 -20 -12 -20h-97z" />
    <glyph glyph-name="a" unicode="a" horiz-adv-x="1062" 
d="M285 279q-1 -154 213 -154q110 0 175 50t64 142v109q0 12 -12 12h-197q-127 0 -186 -37q-57 -39 -57 -122zM762 0q-20 0 -21 20v86h-2q-33 -53 -105 -91t-165 -38q-162 0 -256 74q-96 82 -95 230q1 149 103 221q98 74 281 73h223q12 0 12 13v71q0 101 -48 147
q-49 46 -161 46t-166 -20t-86 -42q-30 -22 -40 -6l-56 95q-8 14 4 28q125 97 335 97t296 -78q88 -74 88 -256v-650q0 -20 -20 -20h-121z" />
    <glyph glyph-name="b" unicode="b" horiz-adv-x="1101" 
d="M795 696q-53 148 -218 148q-210 1 -232 -239q-5 -54 -5 -112t4 -124q28 -232 234 -232q166 0 217 150q22 71 22 206t-22 203zM340 115v-95q0 -20 -21 -20h-131q-20 0 -20 20v1352q0 20 20 21h131q20 0 21 -21v-504h2q79 136 279 136q266 0 337 -236q18 -49 29 -121
q6 -65 6 -155q0 -188 -35 -279q-73 -234 -337 -236q-203 0 -279 138h-2z" />
    <glyph glyph-name="c" unicode="c" horiz-adv-x="966" 
d="M139 242q-30 88 -30 250t30 247q39 127 143 196t231 69q236 0 349 -166q10 -16 -6 -29l-90 -74q-16 -12 -29 2q-43 51 -89 79t-124 28q-212 0 -235 -242q-4 -44 -4 -110t4 -111q14 -152 100 -205q57 -39 135 -39t124 28t89 79q12 14 29 2l90 -74q16 -12 6 -29
q-111 -166 -350 -166q-127 0 -230 69t-143 196z" />
    <glyph glyph-name="d" unicode="d" horiz-adv-x="1101" 
d="M762 493q0 58 -5 112q-22 238 -235 239q-162 0 -215 -148q-22 -68 -22 -170t4 -148q21 -241 235 -241q166 0 215 150q12 33 19 82q4 66 4 124zM762 868v504q0 20 20 21h131q20 0 21 -21v-1352q0 -20 -21 -20h-131q-20 0 -20 20v95h-2q-80 -138 -279 -138q-265 0 -338 236
q-34 93 -34 231q0 232 34 324q73 234 338 236q202 0 279 -136h2z" />
    <glyph glyph-name="e" unicode="e" horiz-adv-x="1048" 
d="M752 575q12 0 12 13q0 157 -96 223q-60 41 -144 41q-173 0 -225 -154q-14 -41 -14 -110q0 -12 12 -13h455zM525 -23q-137 0 -242 68q-102 74 -138 190t-36 231q0 114 6 169q31 210 168 301q98 68 242 68t241 -70q102 -66 143 -195q19 -46 22 -94q3 -47 6 -82t3 -104
q0 -20 -22 -21h-621q-12 0 -12 -22q0 -71 16 -109q56 -170 247 -170q156 0 253 109q16 16 30 4l84 -76q14 -12 3 -29q-60 -74 -158 -121t-235 -47z" />
    <glyph glyph-name="f" unicode="f" horiz-adv-x="651" 
d="M221 0q-20 0 -20 20v809q0 12 -13 13h-84q-20 0 -20 20v99q0 20 20 20h84q12 0 13 12v84q0 172 73 246q74 70 226 70h75q20 0 21 -21v-119q0 -20 -21 -20h-53q-94 -1 -121 -29q-28 -28 -28 -119v-92q0 -12 12 -12h190q20 0 21 -20v-99q0 -20 -21 -20h-190q-12 0 -12 -13
v-809q0 -20 -21 -20h-131z" />
    <glyph glyph-name="g" unicode="g" horiz-adv-x="1083" 
d="M512 170q156 0 209 147q22 64 22 159q0 151 -22 222q-53 146 -208 146q-232 1 -232 -336q0 -117 24 -191q51 -147 207 -147zM743 868v93q0 20 21 20h131q20 0 20 -20v-918q0 -209 -108 -322q-111 -112 -320 -112q-98 0 -196 39q-94 43 -144 106q-12 14 3 29l83 84
q16 14 31 0q54 -49 106 -74t126 -24q247 0 247 264v114h-2q-76 -135 -272 -135q-255 0 -330 238q-31 96 -32 224t8 177q21 204 145 291q84 61 209 62q199 0 272 -136h2z" />
    <glyph glyph-name="h" unicode="h" horiz-adv-x="1114" 
d="M805 0q-20 0 -21 20v574q0 250 -219 250q-101 0 -163 -64t-62 -176v-584q0 -20 -21 -20h-131q-20 0 -20 20v1352q0 20 20 21h131q20 0 21 -21v-502h2q33 55 104 97q72 37 170 37q162 0 251 -102t89 -267v-615q0 -20 -20 -20h-131z" />
    <glyph glyph-name="i" unicode="i" horiz-adv-x="507" 
d="M188 0q-20 0 -20 20v941q0 20 20 20h131q20 0 21 -20v-941q0 -20 -21 -20h-131zM184 1202q-20 0 -20 21v149q0 20 20 21h140q20 0 20 -21v-149q0 -20 -20 -21h-140z" />
    <glyph glyph-name="j" unicode="j" horiz-adv-x="507" 
d="M6 -369q-20 0 -20 21v119q0 20 20 20h33q73 0 101 28t28 103v1039q0 20 20 20h131q20 0 21 -20v-1035q0 -160 -72 -228t-221 -67h-41zM184 1202q-20 0 -20 21v149q0 20 20 21h140q20 0 20 -21v-149q0 -20 -20 -21h-140z" />
    <glyph glyph-name="k" unicode="k" horiz-adv-x="1046" 
d="M821 0q-20 0 -33 20l-278 457l-170 -198v-259q0 -20 -21 -20h-131q-20 0 -20 20v1352q0 20 20 21h131q20 0 21 -21v-866l387 457q14 18 37 18h151q21 0 9 -20l-301 -351l362 -590q2 -4 2 -12q-6 -8 -14 -8h-152z" />
    <glyph glyph-name="l" unicode="l" horiz-adv-x="567" 
d="M403 -10q-129 0 -184 62t-55 196v1124q0 20 20 21h131q20 0 21 -21v-1114q0 -61 24 -85t74 -23h39q20 0 21 -21v-119q0 -20 -21 -20h-70z" />
    <glyph glyph-name="m" unicode="m" horiz-adv-x="1730" 
d="M1223 1004q174 0 260 -101q90 -98 90 -268v-615q0 -20 -21 -20h-131q-20 0 -20 20v574q0 250 -219 250q-98 0 -162 -64t-64 -176v-584q0 -20 -20 -20h-131q-20 0 -21 20v574q0 250 -219 250q-101 0 -163 -64t-62 -176v-584q0 -20 -21 -20h-131q-20 0 -20 20v941
q0 20 20 20h131q20 0 21 -20v-91h2q33 55 104 97q72 37 173 37t172 -41q72 -37 112 -113h2q110 154 318 154z" />
    <glyph glyph-name="n" unicode="n" horiz-adv-x="1114" 
d="M805 0q-20 0 -21 20v574q0 250 -219 250q-101 0 -163 -64t-62 -176v-584q0 -20 -21 -20h-131q-20 0 -20 20v941q0 20 20 20h131q20 0 21 -20v-91h2q33 55 104 97q72 37 170 37q162 0 251 -102t89 -267v-615q0 -20 -20 -20h-131z" />
    <glyph glyph-name="o" unicode="o" horiz-adv-x="1056" 
d="M528 137q78 0 140 39q92 69 98 201q6 43 6 115t-4 114q-14 143 -100 197q-56 41 -140 41t-139 -41q-86 -55 -100 -198q-4 -41 -4 -113t4 -114q13 -136 100 -202q61 -39 139 -39zM528 -23q-143 0 -245 72q-135 95 -166 299q-8 51 -8 168q-1 116 35 232t138 186t246 70
t246 -70t138 -187t36 -232t-8 -167q-31 -202 -166 -301q-103 -70 -246 -70z" />
    <glyph glyph-name="p" unicode="p" horiz-adv-x="1101" 
d="M795 696q-53 148 -218 148q-210 1 -232 -239q-5 -54 -5 -112t4 -124q28 -232 234 -232q166 0 217 150q22 71 22 206t-22 203zM340 115v-463q0 -20 -21 -21h-131q-20 0 -20 21v1309q0 20 20 20h131q20 0 21 -20v-93h2q79 136 279 136q266 0 337 -236q18 -49 29 -121
q6 -65 6 -155q0 -188 -35 -279q-73 -234 -337 -236q-203 0 -279 138h-2z" />
    <glyph glyph-name="q" unicode="q" horiz-adv-x="1101" 
d="M762 493q0 58 -5 112q-22 238 -235 239q-162 0 -215 -148q-22 -68 -22 -170t4 -148q21 -241 235 -241q166 0 215 150q12 33 19 82q4 66 4 124zM762 868v93q0 20 20 20h131q20 0 21 -20v-1309q0 -20 -21 -21h-131q-20 0 -20 21v463h-2q-80 -138 -279 -138q-265 0 -338 236
q-34 93 -34 231q0 232 34 324q73 234 338 236q202 0 279 -136h2z" />
    <glyph glyph-name="r" unicode="r" horiz-adv-x="839" 
d="M340 557v-537q0 -20 -21 -20h-131q-20 0 -20 20v941q0 20 20 20h131q20 0 21 -20v-101h2q76 144 260 144q63 0 111 -21q51 -16 90 -53q12 -12 4 -29l-76 -100q-12 -17 -39 1q-61 40 -141 42q-211 0 -211 -287z" />
    <glyph glyph-name="s" unicode="s" horiz-adv-x="1003" 
d="M506 -23q-115 0 -244 48q-66 31 -90 49q-41 23 -72 51q-14 14 0 29l84 90q14 14 29 0q133 -113 311 -113q102 0 154 42q53 43 53 103t-39 95t-151 47l-105 10q-293 32 -293 287q0 129 95 211q100 78 287 78t331 -109q16 -10 4 -29l-69 -88q-12 -14 -29 -4
q-121 80 -264 80q-94 0 -140 -38t-47 -96q0 -58 41 -92t152 -42l102 -11q152 -14 221 -86q74 -71 74 -203t-102 -220q-96 -89 -293 -89z" />
    <glyph glyph-name="t" unicode="t" horiz-adv-x="647" 
d="M453 -10q-145 0 -203 67q-61 63 -62 211v561q0 12 -12 13h-82q-20 0 -20 20v99q0 20 20 20h82q12 0 12 12v277q0 20 21 20h131q20 0 20 -20v-277q0 -12 13 -12h155q20 0 21 -20v-99q0 -20 -21 -20h-155q-12 0 -13 -13v-555q0 -74 29 -100t96 -24h43q20 0 21 -21v-119
q0 -20 -21 -20h-75z" />
    <glyph glyph-name="u" unicode="u" horiz-adv-x="1103" 
d="M326 389q0 -252 217 -252q100 0 162 66q59 66 59 176v582q0 20 20 20h131q20 0 21 -20v-941q0 -20 -21 -20h-131q-20 0 -20 20v93h-2q-91 -136 -259 -136q-167 0 -261 101q-88 106 -88 270v613q0 20 20 20h131q20 0 21 -20v-572z" />
    <glyph glyph-name="v" unicode="v" horiz-adv-x="976" 
d="M430 0q-18 0 -24 20l-353 941q-6 20 17 20h141q18 0 27 -20l254 -705h4l247 705q6 20 25 20h139q23 0 17 -20l-351 -941q-6 -20 -26 -20h-117z" />
    <glyph glyph-name="w" unicode="w" horiz-adv-x="1525" 
d="M1012 0q-18 0 -25 20l-221 703h-4l-223 -703q-6 -20 -25 -20h-119q-18 0 -24 20l-308 941q-6 20 15 20h139q18 0 27 -20l217 -709h4l221 709q6 20 25 20h106q20 0 27 -20l223 -709h4l211 709q2 20 27 20h139q20 0 14 -20l-309 -941q-6 -20 -25 -20h-116z" />
    <glyph glyph-name="x" unicode="x" horiz-adv-x="983" 
d="M731 981h148q14 0 14 -6q4 -4 0 -14l-307 -449l336 -492q4 -10 0 -14q0 -6 -15 -6h-147q-18 0 -31 18l-237 347h-3l-237 -347q-10 -18 -31 -18h-145q-23 0 -15 20l334 492l-305 449q-4 10 0 14q0 6 14 6h148l18 -2q8 -8 13 -16l206 -306h3l210 306q10 18 29 18z" />
    <glyph glyph-name="y" unicode="y" horiz-adv-x="976" 
d="M176 -369q-20 0 -20 21v119q0 20 20 20h37q61 0 96 31t70 117l33 90l-361 932q-6 20 17 20h143q18 0 25 -20l258 -709h4l247 709q6 20 25 20h139q23 0 17 -20l-387 -1037q-35 -90 -66 -144q-62 -108 -145 -136q-43 -12 -99 -13h-53z" />
    <glyph glyph-name="z" unicode="z" horiz-adv-x="976" 
d="M133 0q-20 0 -20 20v109q0 14 8 23l538 669v4h-499q-20 0 -21 21v115q0 20 21 20h684q20 0 20 -20v-115q0 -14 -8 -23l-534 -663v-4h522q20 0 20 -21v-115q0 -20 -20 -20h-711z" />
    <glyph glyph-name="braceleft" unicode="{" horiz-adv-x="681" 
d="M434 68q0 -101 92 -101h60q20 0 20 -20v-99q0 -20 -20 -20h-94q-219 0 -220 231v373q0 88 -32 126t-95 40q-20 0 -20 20v117q0 20 20 21q63 2 97 39q31 39 30 125v364q0 231 220 232h94q20 0 20 -21v-98q0 -20 -20 -21h-60q-92 0 -92 -100v-354q0 -111 -28 -168
q-33 -51 -99 -76v-2q70 -25 99 -77t28 -167v-364z" />
    <glyph glyph-name="bar" unicode="|" horiz-adv-x="593" 
d="M244 -172q-20 0 -21 20v1647q0 20 21 21h106q20 0 21 -21v-1647q0 -20 -21 -20h-106z" />
    <glyph glyph-name="braceright" unicode="}" horiz-adv-x="681" 
d="M248 1276q0 102 -92 100h-60q-20 0 -20 21v98q0 20 20 21h94q219 0 220 -232v-364q0 -86 32 -124t95 -40q20 0 20 -21v-117q0 -20 -20 -20q-66 -4 -95 -41q-33 -35 -32 -125v-373q0 -231 -220 -231h-94q-20 0 -20 20v99q0 20 20 20h60q92 0 92 101v364q0 117 31 166
q27 53 96 78v2q-67 25 -97 78t-30 166v354z" />
    <glyph glyph-name="asciitilde" unicode="~" 
d="M742 426q-74 0 -122 22t-117 67q-68 46 -121 46q-52 0 -91 -29q-31 -27 -66 -81q-10 -16 -28 -5l-78 46q-16 10 -8 28q39 84 111 134t146 50t122 -20q48 -22 117 -68q124 -84 212 -18q31 27 66 82q10 16 28 4l78 -45q16 -10 8 -29q-39 -84 -111 -134t-146 -50z" />
  </font>
</defs>
</svg>
