<?xml version="1.0" encoding="UTF-8" standalone="no"?>
<svg width="1183px" height="779px" viewBox="0 0 1183 779" version="1.1" xmlns="http://www.w3.org/2000/svg" xmlns:xlink="http://www.w3.org/1999/xlink" xmlns:sketch="http://www.bohemiancoding.com/sketch/ns">
    <!-- Generator: Sketch 3.2.2 (9983) - http://www.bohemiancoding.com/sketch -->
    <title>workspace</title>
    <desc>Created with Sketch.</desc>
    <defs></defs>
    <g id="Page-1" stroke="none" stroke-width="1" fill="none" fill-rule="evenodd" sketch:type="MSPage">
        <g id="workspace" sketch:type="MSLayerGroup" transform="translate(2.000000, 2.000000)">
            <circle id="Oval" stroke="#A3A3A3" stroke-width="3" fill="#FFFFFF" sketch:type="MSShapeGroup" cx="84.5" cy="688.5" r="74.7"></circle>
            <path d="M60,638.2 C31.8,652.2 20.8,685.9 33.9,713.4 L15.7,723.9 C12.2,725.9 11,730.3 13,733.8 L13.1,733.9 C15.1,737.4 19.5,738.6 23,736.6 L41.9,725.8 C59.2,746.3 89.3,752.1 113.4,738.3 C141.3,722.3 150.5,686 132.9,658.6 C117.5,634.2 85.8,625.3 60,638.2 L60,638.2 Z" id="Shape" stroke="#000000" stroke-width="3" fill="#FFFFFF" sketch:type="MSShapeGroup"></path>
            <rect id="Rectangle-path" stroke="#000000" stroke-width="2.99988639" fill="#E7E8E8" sketch:type="MSShapeGroup" transform="translate(1001.912155, 78.267145) rotate(-8.134964) translate(-1001.912155, -78.267145) " x="933.464747" y="13.0696142" width="136.894815" height="130.395062"></rect>
            <rect id="Rectangle-path" stroke="#000000" stroke-width="3" fill="#FFFFFF" sketch:type="MSShapeGroup" x="920" y="0.1" width="136.9" height="130.4"></rect>
            <path d="M75.8,222.9 L51.3,231.3 C47.7,232.5 43.7,230.6 42.5,227 L23.3,171 C22.1,167.4 24,163.4 27.6,162.2 L52.1,153.8 C55.7,152.6 59.7,154.5 60.9,158.1 L80.1,214 C81.3,217.7 79.4,221.7 75.8,222.9 L75.8,222.9 Z" id="Shape" stroke="#000000" stroke-width="3" fill="#FFFFFF" sketch:type="MSShapeGroup"></path>
            <path d="M733.2,418.9 L733.2,418.7 C733.2,405.8 743.6,395.4 756.5,395.4 L799.7,395.4 C812.6,395.4 823,405.8 823,418.7 L823,425.6 C823,438.5 833.4,448.9 846.3,448.9 L1051,448.9 C1063.9,448.9 1074.3,438.5 1074.3,425.6 L1074.3,207.4 C1074.3,194.5 1063.9,184.1 1051,184.1 L886.8,184.1 C873.9,184.1 863.5,173.7 863.5,160.8 L863.5,78.7 C863.5,65.8 853.1,55.4 840.2,55.4 L822.8,55.4" id="Shape" stroke="#A3A3A3" stroke-width="3" sketch:type="MSShapeGroup"></path>
            <path d="M198,537.7 L198,646 C198,654.6 205,661.5 213.5,661.5 L213.8,661.5 C222.4,661.5 229.3,654.5 229.3,646 L229.3,617.6 C229.3,609 236.3,602.1 244.8,602.1 L256.4,602.1 C265,602.1 271.9,609.1 271.9,617.6 L271.9,706.4 C271.9,715 278.9,721.9 287.4,721.9 L289.3,721.9 C297.9,721.9 304.8,714.9 304.8,706.4 L304.8,465.4 C304.8,458.8 299.4,453.4 292.8,453.4 L287.6,453.4 C281,453.4 275.6,448 275.6,441.4 L275.6,418.6 C275.6,412 281,406.6 287.6,406.6 L323.6,406.6 C330.2,406.6 335.6,401.2 335.6,394.6 L335.6,388.1 C335.6,381.5 330.2,376.1 323.6,376.1 L265.3,376.1 C258.7,376.1 253.3,370.7 253.3,364.1 L253.3,333 C253.3,326.4 258.7,321 265.3,321 L353.6,321" id="Shape" stroke="#A3A3A3" stroke-width="3" sketch:type="MSShapeGroup"></path>
            <g id="Group" transform="translate(860.000000, 499.000000)" sketch:type="MSShapeGroup">
                <path d="M186.4,246.6 L10.6,246.6 C4.8,246.6 0,241.9 0,236 L0,18 C0,12.2 4.7,7.4 10.6,7.4 L186.4,7.4 C192.2,7.4 197,12.1 197,18 L197,236 C196.9,241.9 192.2,246.6 186.4,246.6 L186.4,246.6 Z" id="Shape" stroke="#000000" stroke-width="3" fill="#E62878"></path>
                <path d="M51.2,7.5 L208.2,7.5 C214,7.5 218.8,12.2 218.8,18.1 L218.8,236.1 C218.8,241.9 214.1,246.7 208.2,246.7 L61.6,246.7 L51.2,246.7 L51.2,7.5 L51.2,7.5 Z" id="Shape" stroke="#000000" stroke-width="3" fill="#E7E8E8"></path>
                <path d="M29.3,7.5 L186.3,7.5 C192.1,7.5 196.9,12.2 196.9,18.1 L196.9,236.1 C196.9,241.9 192.2,246.7 186.3,246.7 L39.7,246.7 L29.3,246.7 L29.3,7.5 L29.3,7.5 Z" id="Shape" stroke="#000000" stroke-width="3" fill="#FFFFFF"></path>
                <path d="M161.5,75.3 L146.3,53.7 C145.2,52.2 143,52.2 141.9,53.7 L126.7,75.3 C125.2,77.4 121.8,76.4 121.8,73.8 L121.8,10.3 C121.8,8.8 123,7.6 124.5,7.6 L163.7,7.6 C165.2,7.6 166.4,8.8 166.4,10.3 L166.4,73.8 C166.4,76.3 163,77.4 161.5,75.3 L161.5,75.3 Z" id="Shape" stroke="#000000" stroke-width="3" fill="#FCDB30"></path>
                <g transform="translate(242.000000, 0.000000)" id="Shape">
                    <g stroke="#000000" stroke-width="3">
                        <path d="M30.4,166.4 L12.6,197.1 L0.9,163.6 L15.8,4.9 C15.8,4.9 21,-0.1 30.7,0.8 C40.6,1.7 45.3,7.6 45.3,7.6 L30.4,166.4 L30.4,166.4 Z" fill="#69509E"></path>
                        <path d="M0.9,163.6 L30.4,166.4" fill="#FFFFFF"></path>
                        <path d="M14.4,25.6 C14.4,25.6 27.3,22.1 43.2,28.2 L42.3,38.1 C42.3,38.1 29.1,33.2 13.6,35.4 C13.5,35.5 14.5,25.5 14.4,25.6 L14.4,25.6 Z" fill="#FCDB30"></path>
                        <path d="M45.3,7.7 L52.6,17.2 L47,76.6"></path>
                    </g>
                    <path d="M4.4,167 L13.1,191.6 L26.3,168.7 L4.4,167 Z" fill="#FCDB30"></path>
                </g>
                <path d="M258,40.6 L247.3,157.5" id="Shape" stroke="#FFFFFF" stroke-width="3" opacity="0.5"></path>
                <path d="M261,7.9 L260,19.4" id="Shape" stroke="#FFFFFF" stroke-width="3" opacity="0.5"></path>
            </g>
            <g id="Group" transform="translate(0.000000, 311.000000)" stroke="#000000" sketch:type="MSShapeGroup">
                <path d="M114.1,0.5 C95.7,0.5 78.2,4.6 62.2,11.9 C57.2,14.2 54.2,19.8 54.9,25.6 L54.9,25.6 C55.9,34.3 64.4,39.4 71.8,36 C84.8,30 99.1,26.7 114.1,26.7 C129.1,26.7 143.4,30 156.4,36 C163.9,39.4 172.3,34.3 173.3,25.6 L173.3,25.6 C174,19.8 171,14.2 166,11.9 C150.1,4.6 132.5,0.5 114.1,0.5 L114.1,0.5 Z" id="Shape" stroke-width="3" fill="#FCDB30"></path>
                <path d="M114.1,10 C51.3,10 0.4,61.6 0.4,125.2 C0.4,158.8 14.6,189 37.2,210.1 L37.2,178.5 C27,163.4 20.9,145 20.9,125.2 C20.9,73.1 62.6,30.8 114.1,30.8 C165.6,30.8 207.3,73.1 207.3,125.2 C207.3,145 201.3,163.4 191,178.5 L191,210.1 C213.6,189 227.8,158.8 227.8,125.2 C227.9,61.6 176.9,10 114.1,10 L114.1,10 Z" id="Shape" stroke-width="3" fill="#E6E7E8"></path>
                <circle id="Oval" stroke-width="3" fill="#E62878" cx="33.8" cy="205" r="11.4"></circle>
                <circle id="Oval" stroke-width="3" fill="#E62878" cx="195.5" cy="205" r="11.4"></circle>
                <path d="M42,234.9 L35.9,234.9 C34.1,234.9 32.7,233.5 32.7,231.7 L32.7,180.2 C32.7,178.4 34.1,177 35.9,177 L42,177 C43.8,177 45.2,178.4 45.2,180.2 L45.2,231.7 C45.2,233.5 43.8,234.9 42,234.9 L42,234.9 Z" id="Shape" stroke-width="3.1163" fill="#FFFFFF"></path>
                <path d="M62,259 L58.2,259 C51,259 45.2,253.2 45.2,246 L45.2,169.2 C45.2,162 51,156.2 58.2,156.2 L62,156.2 C69.2,156.2 75,162 75,169.2 L75,246 C75,253.1 69.2,259 62,259 L62,259 Z" id="Shape" stroke-width="3" fill="#69509E"></path>
                <path d="M188.1,234.9 L194.2,234.9 C196,234.9 197.4,233.5 197.4,231.7 L197.4,180.2 C197.4,178.4 196,177 194.2,177 L188.1,177 C186.3,177 184.9,178.4 184.9,180.2 L184.9,231.7 C184.9,233.5 186.3,234.9 188.1,234.9 L188.1,234.9 Z" id="Shape" stroke-width="3.1163" fill="#FFFFFF"></path>
                <path d="M171.4,259 L167.6,259 C160.4,259 154.6,253.2 154.6,246 L154.6,169.2 C154.6,162 160.4,156.2 167.6,156.2 L171.4,156.2 C178.6,156.2 184.4,162 184.4,169.2 L184.4,246 C184.5,253.1 178.6,259 171.4,259 L171.4,259 Z" id="Shape" stroke-width="3" fill="#69509E"></path>
            </g>
            <g id="Group" transform="translate(387.000000, 417.000000)" stroke="#000000" stroke-width="3" sketch:type="MSShapeGroup">
                <path d="M0.5,278.7 C0.5,287.3 7.5,294.3 16.1,294.3 L380.4,294.3 C389,294.3 396,287.3 396,278.7 L396,65 L0.5,65 L0.5,278.7 L0.5,278.7 Z" id="Shape" fill="#FFFFFF"></path>
                <path d="M380.3,0.7 L16,0.7 C7.4,0.7 0.4,7.7 0.4,16.3 L0.4,65 L395.8,65 L395.8,16.3 C395.9,7.7 388.9,0.7 380.3,0.7 L380.3,0.7 Z" id="Shape" fill="#69509E"></path>
            </g>
            <path d="M303.5,535.6 L303.3,535.6 C296.7,535.6 291.3,530.2 291.3,523.6 L291.3,496.1 C291.3,489.5 296.7,484.1 303.3,484.1 L303.5,484.1 C310.1,484.1 315.5,489.5 315.5,496.1 L315.5,523.6 C315.5,530.3 310.1,535.6 303.5,535.6 L303.5,535.6 Z" id="Shape" stroke="#A3A3A3" stroke-width="3" fill="#FFFFFF" sketch:type="MSShapeGroup"></path>
            <path d="M317.1,515.1 L317.1,515.1 C316.2,515.1 315.5,514.8 315.5,514.3 L315.5,505.3 C315.5,504.9 316.2,504.5 317,504.5 L317,504.5 C317.9,504.5 318.5,504.8 318.5,505.3 L318.5,514.3 C318.6,514.8 317.9,515.1 317.1,515.1 L317.1,515.1 Z" id="Shape" stroke="#A3A3A3" stroke-width="3" sketch:type="MSShapeGroup"></path>
            <g id="Group" transform="translate(492.000000, 602.000000)" stroke="#000000" sketch:type="MSShapeGroup">
                <g>
                    <path d="M32.8,166.4 L107.8,104.7 L87.5,80 L12.5,141.6 L0.6,172.1 L32.8,166.4 Z" id="Shape" stroke-width="3" fill="#69509E"></path>
                    <ellipse id="Oval" stroke-width="2.99986407" fill="#69509E" transform="translate(197.125550, 10.541890) rotate(50.600130) translate(-197.125550, -10.541890) " cx="197.12555" cy="10.54189" rx="7.99963751" ry="6.39971001"></ellipse>
                    <g transform="translate(87.000000, 3.000000)">
                        <path d="M109.5,28.8 C116.3,22.8 117.2,12.7 111.7,6.5 L111.5,6.3 C105.9,-0.5 96,-1.4 89.2,4.1 L81.9,10.1 L102.2,34.8 L109.5,28.8 L109.5,28.8 Z" id="Shape" stroke-width="3" fill="#E6E7E8"></path>
                        <rect id="Rectangle-path" stroke-width="2.99986407" fill="#E6E7E8" transform="translate(48.690480, 58.174140) rotate(230.600130) translate(-48.690480, -58.174140) " x="32.691205" y="8.9763693" width="31.99855" height="98.3955414"></rect>
                        <rect id="Rectangle-path" stroke-width="2.99986407" fill="#69509E" transform="translate(90.662810, 23.635730) rotate(-39.399870) translate(-90.662810, -23.635730) " x="85.4630456" y="7.63645498" width="10.3995288" height="31.99855"></rect>
                    </g>
                </g>
                <path d="M12.5,141.6 L32.8,166.4" id="Shape" stroke-width="3" fill="#E6E7E8"></path>
            </g>
            <path d="M387.5,449.9 L408.8,449.9" id="Shape" stroke="#000000" stroke-width="3" fill="#69509E" sketch:type="MSShapeGroup"></path>
            <path d="M782.9,449.9 L758.1,449.9" id="Shape" stroke="#000000" stroke-width="3" fill="#69509E" sketch:type="MSShapeGroup"></path>
            <path d="M428.5,453.5 L412.6,453.5 C410.5,453.5 408.8,451.8 408.8,449.7 L408.8,449.6 C408.8,447.5 410.5,445.8 412.6,445.8 L428.5,445.8 C430.6,445.8 432.3,447.5 432.3,449.6 L432.3,449.7 C432.3,451.8 430.6,453.5 428.5,453.5 L428.5,453.5 Z" id="Shape" stroke="#000000" stroke-width="3" fill="#FFFFFF" sketch:type="MSShapeGroup"></path>
            <path d="M754.4,453.5 L738.5,453.5 C736.4,453.5 734.7,451.8 734.7,449.7 L734.7,449.6 C734.7,447.5 736.4,445.8 738.5,445.8 L754.4,445.8 C756.5,445.8 758.2,447.5 758.2,449.6 L758.2,449.7 C758.1,451.8 756.4,453.5 754.4,453.5 L754.4,453.5 Z" id="Shape" stroke="#000000" stroke-width="3" fill="#FFFFFF" sketch:type="MSShapeGroup"></path>
            <path d="M625.9,417.7 L544.4,417.7 L544.4,401 C544.4,398 546.9,395.5 549.9,395.5 L620.4,395.5 C623.4,395.5 625.9,398 625.9,401 L625.9,417.7 L625.9,417.7 Z" id="Shape" stroke="#000000" stroke-width="3" fill="#E52C7A" sketch:type="MSShapeGroup"></path>
            <path d="M808.5,336.2 L361.9,336.2 C353.9,336.2 347.4,329.7 347.4,321.7 L347.4,61.9 C347.4,53.9 353.9,47.4 361.9,47.4 L808.4,47.4 C816.4,47.4 822.9,53.9 822.9,61.9 L822.9,321.7 C822.9,329.7 816.4,336.2 808.5,336.2 L808.5,336.2 Z" id="Shape" stroke="#000000" stroke-width="3" fill="#E6E7E8" sketch:type="MSShapeGroup"></path>
            <path d="M808.5,295.5 L361.9,295.5 C353.9,295.5 347.4,289 347.4,281 L347.4,19.6 C347.4,11.6 353.9,5.1 361.9,5.1 L808.4,5.1 C816.4,5.1 822.9,11.6 822.9,19.6 L822.9,280.9 C822.9,288.9 816.4,295.5 808.5,295.5 L808.5,295.5 Z" id="Shape" stroke="#000000" stroke-width="3" fill="#FFFFFF" sketch:type="MSShapeGroup"></path>
            <path d="M641,319.3 L529.4,319.3 C526.5,319.3 524.1,316.9 524.1,314 L524.1,295.5 L646.3,295.5 L646.3,314 C646.3,316.9 643.9,319.3 641,319.3 L641,319.3 Z" id="Shape" stroke="#000000" stroke-width="3" fill="#E6E7E8" sketch:type="MSShapeGroup"></path>
            <g id="Group" transform="translate(141.000000, 4.000000)" sketch:type="MSShapeGroup">
                <rect id="Rectangle-path" stroke="#000000" stroke-width="3.00001704" fill="#FFFFFF" transform="translate(35.554725, 48.702165) rotate(185.193710) translate(-35.554725, -48.702165) " x="18.2046265" y="9.45194175" width="34.7001971" height="78.5004459"></rect>
                <path d="M57.1,3.3 L47.5,2.4 L36.3,1.4 L22.7,0.2 L22,8.1 L35.6,9.3 L31.6,53.5 C31.3,56.6 33.6,59.3 36.7,59.6 L36.8,59.6 C39.9,59.9 42.6,57.6 42.9,54.5 L46.9,10.3 L56.5,11.2 L57.1,3.3 L57.1,3.3 Z" id="Shape" stroke="#000000" stroke-width="3" fill="#E52C7A"></path>
                <rect id="Rectangle-path" stroke="#000000" stroke-width="3.00001704" fill="#E52C7A" transform="translate(31.654659, 92.402968) rotate(5.193710) translate(-31.654659, -92.402968) " x="14.3045606" y="87.7029408" width="34.7001971" height="9.40005341"></rect>
                <path d="M49.3,89.3 L14.8,86.2 L0.5,242.9 L6.2,243.4 L5.8,247.5 L29.1,249.6 L29.5,245.5 L35.1,246 L49.3,89.3 Z" id="Shape" stroke="#000000" stroke-width="3" fill="#FFFFFF"></path>
                <rect id="Rectangle-path" stroke="#000000" stroke-width="3.00001704" fill="#E6E7E8" transform="translate(17.605777, 246.449704) rotate(5.193710) translate(-17.605777, -246.449704) " x="5.90571092" y="244.399692" width="23.4001329" height="4.10002329"></rect>
                <g transform="translate(16.000000, 187.000000)" id="Shape" stroke="#CECECE" stroke-width="3">
                    <path d="M3.9,0.3 L0.7,36.2"></path>
                    <path d="M8.4,18.8 L6.8,36.7"></path>
                </g>
            </g>
            <g id="Group" transform="translate(215.000000, 4.000000)" sketch:type="MSShapeGroup">
                <rect id="Rectangle-path" stroke="#000000" stroke-width="3.00006651" fill="#FFFFFF" transform="translate(21.975357, 48.307917) rotate(181.207764) translate(-21.975357, -48.307917) " x="4.62497209" y="9.05704681" width="34.7007693" height="78.5017402"></rect>
                <path d="M40.3,1.6 L30.6,1.4 L19.3,1.2 L5.6,0.9 L5.4,8.8 L19.1,9.1 L18.2,53.5 C18.1,56.6 20.6,59.1 23.7,59.2 L23.8,59.2 C26.9,59.3 29.4,56.8 29.5,53.7 L30.4,9.3 L40.1,9.5 L40.3,1.6 L40.3,1.6 Z" id="Shape" stroke="#000000" stroke-width="3" fill="#FCDB30"></path>
                <rect id="Rectangle-path" stroke="#000000" stroke-width="3.00006651" fill="#E52C7A" transform="translate(21.156729, 92.304160) rotate(1.207768) translate(-21.156729, -92.304160) " x="3.80634435" y="87.604056" width="34.7007693" height="9.4002084"></rect>
                <path d="M38.5,88 L3.9,87.2 L0.5,244.5 L6.2,244.7 L6.1,248.8 L29.5,249.3 L29.6,245.1 L35.2,245.3 L38.5,88 Z" id="Shape" stroke="#000000" stroke-width="3" fill="#FFFFFF"></path>
                <rect id="Rectangle-path" stroke="#000000" stroke-width="3.00006651" fill="#E6E7E8" transform="translate(17.806920, 246.955717) rotate(1.207768) translate(-17.806920, -246.955717) " x="6.10666041" y="244.905672" width="23.4005188" height="4.1000909"></rect>
                <g transform="translate(15.000000, 187.000000)" id="Shape" stroke="#CECECE" stroke-width="3">
                    <path d="M1,0.8 L0.3,36.8"></path>
                    <path d="M6.8,18.9 L6.4,36.9"></path>
                </g>
            </g>
            <g id="Group" transform="translate(94.000000, 3.000000)" sketch:type="MSShapeGroup">
                <rect id="Rectangle-path" stroke="#000000" stroke-width="2.99996287" fill="#FFFFFF" transform="translate(24.290355, 49.934315) rotate(172.142968) translate(-24.290355, -49.934315) " x="6.94056971" y="10.6848007" width="34.6995706" height="78.4990286"></rect>
                <path d="M35.1,0.9 L25.5,2.2 L14.3,3.7 L0.7,5.6 L1.8,13.4 L15.4,11.5 L21.5,55.5 C21.9,58.6 24.7,60.7 27.8,60.3 L27.9,60.3 C31,59.9 33.1,57.1 32.7,54 L26.6,10 L36.2,8.7 L35.1,0.9 L35.1,0.9 Z" id="Shape" stroke="#000000" stroke-width="3" fill="#69509E"></path>
                <rect id="Rectangle-path" stroke="#000000" stroke-width="2.99996287" fill="#E52C7A" transform="translate(30.346960, 93.492855) rotate(-7.857032) translate(-30.346960, -93.492855) " x="12.9971747" y="88.7929132" width="34.6995706" height="9.39988367"></rect>
                <path d="M46.9,86.5 L12.5,91.2 L34,247.1 L39.6,246.3 L40.2,250.4 L63.3,247.2 L62.8,243.1 L68.4,242.3 L46.9,86.5 Z" id="Shape" stroke="#000000" stroke-width="3" fill="#FFFFFF"></path>
                <rect id="Rectangle-path" stroke="#000000" stroke-width="2.99996287" fill="#E6E7E8" transform="translate(51.499425, 246.739600) rotate(-7.857032) translate(-51.499425, -246.739600) " x="39.7995698" y="244.689625" width="23.3997104" height="4.09994926"></rect>
                <g transform="translate(40.000000, 188.000000)" id="Shape" stroke="#CECECE" stroke-width="3">
                    <path d="M0.4,0.6 L5.3,36.3"></path>
                    <path d="M8.9,17.6 L11.3,35.4"></path>
                </g>
            </g>
            <rect id="Rectangle-path" stroke="#000000" stroke-width="3.00004059" fill="#69509E" sketch:type="MSShapeGroup" transform="translate(51.035895, 190.008975) rotate(-18.935019) translate(-51.035895, -190.008975) " x="26.1855588" y="160.80858" width="49.7006724" height="58.4007901"></rect>
            <path d="M884.3,511.9 L884.3,739.9" id="Shape" stroke="#FFFFFF" stroke-width="3" opacity="0.5" sketch:type="MSShapeGroup"></path>
            <path d="M514.6,748.4 L582.4,694.1" id="Shape" stroke="#FFFFFF" stroke-width="3" opacity="0.5" sketch:type="MSShapeGroup"></path>
            <path d="M664.9,626.4 L668.5,623.9" id="Shape" stroke="#FFFFFF" stroke-width="3" opacity="0.5" sketch:type="MSShapeGroup"></path>
            <path d="M779.9,478.9 L387.5,478.9 L387.5,459.9" id="Shape" stroke="#000000" stroke-width="3" opacity="0.3" sketch:type="MSShapeGroup"></path>
            <path d="M393.4,443.4 L393.4,431.2 C393.4,431.2 396.9,422.9 401.9,422.9 L764.9,422.9" id="Shape" stroke="#FFFFFF" stroke-width="3" opacity="0.3" sketch:type="MSShapeGroup"></path>
            <path d="M548.5,399.4 L618.4,399.4" id="Shape" stroke="#FFFFFF" stroke-width="3" opacity="0.5" sketch:type="MSShapeGroup"></path>
            <path d="M774.5,489.2 L774.5,687.2" id="Shape" stroke="#E6E7E8" stroke-width="3" opacity="0.3" sketch:type="MSShapeGroup"></path>
            <path d="M1029.3,510.2 L1029.3,570" id="Shape" stroke="#E6E7E8" stroke-width="3" sketch:type="MSShapeGroup"></path>
            <path d="M1003.5,556.5 L991,575.4" id="Shape" stroke="#E6E7E8" stroke-width="3" sketch:type="MSShapeGroup"></path>
            <path d="M817.9,21.9 L817.9,257.9" id="Shape" stroke="#E6E7E8" stroke-width="3" sketch:type="MSShapeGroup"></path>
            <path d="M250.4,20 L250.4,82.5" id="Shape" stroke="#E6E7E8" stroke-width="3" sketch:type="MSShapeGroup"></path>
            <path d="M244.6,242.5 L247.9,96.5" id="Shape" stroke="#E6E7E8" stroke-width="3" sketch:type="MSShapeGroup"></path>
            <path d="M62.3,161.3 L77.4,206.3 L40,219.7" id="Shape" stroke="#FFFFFF" stroke-width="3" opacity="0.3" sketch:type="MSShapeGroup"></path>
            <path d="M159.4,478.6 L159.4,555.1" id="Shape" stroke="#FFFFFF" stroke-width="3" opacity="0.3" sketch:type="MSShapeGroup"></path>
            <path d="M51.1,478.6 L51.1,555.1" id="Shape" stroke="#FFFFFF" stroke-width="3" opacity="0.3" sketch:type="MSShapeGroup"></path>
            <path d="M361.9,331.4 L809.4,331.4" id="Shape" stroke="#BFBFBF" stroke-width="3" sketch:type="MSShapeGroup"></path>
            <g id="Group" transform="translate(1020.000000, 228.000000)" stroke-width="3" sketch:type="MSShapeGroup">
                <g>
                    <path d="M67.3,132.1 L4.5,85.3 L66.8,1.7 C67.9,0.2 70.1,-0.2 71.6,1 L131.6,45.7 L67.3,132.1 L67.3,132.1 Z" id="Shape" stroke="#000000" fill="#FFFFFF"></path>
                    <path d="M68.5,138.2 L19.8,76.9 L102,11.7 C103.5,10.5 105.7,10.8 106.9,12.3 L153.4,70.9 L68.5,138.2 L68.5,138.2 Z" id="Shape" stroke="#000000" fill="#FCDB30"></path>
                    <path d="M65.4,147.6 L30.9,77.3 L112.6,37.2 C114.3,36.4 116.4,37.1 117.2,38.8 L150.2,106 L65.4,147.6 L65.4,147.6 Z" id="Shape" stroke="#000000" fill="#FFFFFF"></path>
                    <path d="M151.1,189.2 L18.4,189.2 C15.7,189.2 13.5,187 13.5,184.3 L13.5,79.7 C13.5,77 15.7,74.8 18.4,74.8 L151.1,74.8 C153.8,74.8 156,77 156,79.7 L156,184.4 C156,187 153.8,189.2 151.1,189.2 L151.1,189.2 Z" id="Shape" stroke="#000000" fill="#69509E"></path>
                    <path d="M138.4,189.2 L5.7,189.2 C3,189.2 0.8,187 0.8,184.3 L0.8,79.7 C0.8,77 3,74.8 5.7,74.8 L138.4,74.8 C141.1,74.8 143.3,77 143.3,79.7 L143.3,184.4 C143.3,187 141.1,189.2 138.4,189.2 L138.4,189.2 Z" id="Shape" stroke="#000000" fill="#E6E7E8"></path>
                    <path d="M157.2,147.2 L109.1,147.2 C100.8,147.2 93.9,140.4 93.9,132 L93.9,132 C93.9,123.7 100.7,116.8 109.1,116.8 L157.2,116.8 C158.4,116.8 159.3,117.8 159.3,118.9 L159.3,144.9 C159.3,146.2 158.4,147.2 157.2,147.2 L157.2,147.2 Z" id="Shape" stroke="#000000" fill="#E52C7A"></path>
                    <circle id="Oval" stroke="#000000" fill="#FFFFFF" cx="109" cy="132" r="6.7"></circle>
                    <path d="M25.7,74.8 L25.7,189" id="Shape" stroke="#3A3A3A"></path>
                </g>
                <path d="M5.5,82.6 L5.5,181.1" id="Shape" stroke="#FFFFFF"></path>
                <path d="M30.9,181.1 L30.9,81.1" id="Shape" stroke="#FFFFFF"></path>
            </g>
            <path d="M1068,721 L1068,739.9" id="Shape" stroke="#BFBFBF" stroke-width="3" sketch:type="MSShapeGroup"></path>
            <path d="M1060.9,44.9 L1060.9,127.4" id="Shape" stroke="#BFBFBF" stroke-width="3" sketch:type="MSShapeGroup"></path>
            <path d="M651.4,298 L811.4,298" id="Shape" stroke="#BFBFBF" stroke-width="3" sketch:type="MSShapeGroup"></path>
            <path d="M359.9,298 L517.9,298" id="Shape" stroke="#BFBFBF" stroke-width="3" sketch:type="MSShapeGroup"></path>
            <path d="M114,330.7 C172.1,330.7 219.2,377.8 219.2,435.9" id="Shape" stroke="#BFBFBF" stroke-width="3" sketch:type="MSShapeGroup"></path>
            <circle id="Oval" stroke="#000000" stroke-width="3" fill="#E52C7A" sketch:type="MSShapeGroup" cx="85" cy="689.5" r="47.3"></circle>
            <path d="M51.2,710.2 C40.7,691.8 47,668.4 65.4,657.9 C83.8,647.4 107.2,653.7 117.7,672.1" id="Shape" stroke="#FFFFFF" stroke-width="3" opacity="0.5" sketch:type="MSShapeGroup"></path>
            <path d="M179,735 C179,740.5 176.7,748.4 171.2,748.4 C165.7,748.4 159.1,740.4 159.1,735 C159.1,729.5 163.5,725.1 169,725.1 C174.5,725.1 179,729.5 179,735 L179,735 Z" id="Shape" stroke="#000000" stroke-width="3" opacity="0.8" fill="#FCDB30" sketch:type="MSShapeGroup"></path>
            <circle id="Oval" stroke="#000000" stroke-width="3" opacity="0.8" fill="#FCDB30" sketch:type="MSShapeGroup" cx="176.8" cy="761.4" r="5"></circle>
            <path d="M296.5,501.3 L296.5,515.1" id="Shape" stroke="#CECECE" stroke-width="3" sketch:type="MSShapeGroup"></path>
            <path d="M591.8,687.2 L658.6,633" id="Shape" stroke="#CECECE" stroke-width="3" sketch:type="MSShapeGroup"></path>
            <path d="M947.8,690.5 L1021.6,690.5" id="Shape" stroke="#CECECE" stroke-width="3" sketch:type="MSShapeGroup"></path>
            <path d="M947.8,706.7 L975.6,706.7" id="Shape" stroke="#CECECE" stroke-width="3" sketch:type="MSShapeGroup"></path>
            <path d="M947.8,716 L1010.5,716" id="Shape" stroke="#CECECE" stroke-width="3" sketch:type="MSShapeGroup"></path>
            <path d="M988.2,515.9 L988.2,521.3" id="Shape" stroke="#FFFFFF" stroke-width="3" sketch:type="MSShapeGroup"></path>
            <path d="M548.5,403.2 L548.5,406.7" id="Shape" stroke="#FFFFFF" stroke-width="3" sketch:type="MSShapeGroup"></path>
            <path d="M506.7,754.1 L505.2,756" id="Shape" stroke="#FFFFFF" stroke-width="3" sketch:type="MSShapeGroup"></path>
            <path d="M62.3,161.3 L55.7,163.8" id="Shape" stroke="#FFFFFF" stroke-width="3" sketch:type="MSShapeGroup"></path>
            <path d="M944.1,412.4 L926.1,415 C906.5,417.9 888.1,402.4 884.8,380.5 L876.2,322.2 C873,300.2 886.2,280.1 905.8,277.2 L923.8,274.6 C943.4,271.7 961.8,287.2 965.1,309.1 L973.7,367.4 C976.9,389.4 963.6,409.5 944.1,412.4 L944.1,412.4 Z" id="Shape" stroke="#000000" stroke-width="3" fill="#FFFFFF" sketch:type="MSShapeGroup"></path>
            <path d="M923.6,280.6 C940.9,278.1 957.3,292.5 960.2,312.8 L968.1,366.7 C971.1,387 959.5,405.5 942.3,408 L926.4,410.3 C909.1,412.8 892.7,398.4 889.8,378.1" id="Shape" stroke="#E6E7E8" stroke-width="3" sketch:type="MSShapeGroup"></path>
            <path d="M933.3,392.8 C936.3,392 938.5,389.6 939.2,386.8 C937.4,386.3 935.9,384.9 935.3,383 C934.8,381.2 935.2,379.5 936.3,378.1 C934.2,376.4 931.4,375.8 928.7,376.5 C924.2,377.8 921.6,382.4 922.9,386.9 C924.2,391.4 928.8,394 933.3,392.8 L933.3,392.8 Z" id="Shape" stroke="#CECECE" stroke-width="3" sketch:type="MSShapeGroup"></path>
            <path d="M932.9,373 C933.4,372 933.6,370.9 933.3,369.9 C931.7,370.3 930.3,371.4 929.4,373 C929,373.8 928.8,374.6 928.7,375.5 C930.5,375.5 932.1,374.6 932.9,373 L932.9,373 Z" id="Shape" stroke="#CECECE" stroke-width="3" sketch:type="MSShapeGroup"></path>
            <path d="M950.1,37.3 L1020.6,37.3" id="Shape" stroke="#E6E7E8" stroke-width="3" sketch:type="MSShapeGroup"></path>
            <path d="M961.7,26 L961.7,97.7" id="Shape" stroke="#E6E7E8" stroke-width="3" sketch:type="MSShapeGroup"></path>
            <path d="M950.1,92.5 L1024.5,92.5" id="Shape" stroke="#E6E7E8" stroke-width="3" sketch:type="MSShapeGroup"></path>
            <path d="M1012.8,26 L1012.8,101" id="Shape" stroke="#E6E7E8" stroke-width="3" sketch:type="MSShapeGroup"></path>
            <path d="M1003.8,58.3 C1003.8,64.5 1001.1,70 996.9,73.9 C993.2,77.3 988.2,79.4 982.8,79.4 C971.2,79.4 961.8,70 961.8,58.4 C961.8,46.8 971.2,37.4 982.8,37.4 C994.4,37.4 1003.8,46.7 1003.8,58.3 L1003.8,58.3 Z" id="Shape" stroke="#69519F" stroke-width="3" sketch:type="MSShapeGroup"></path>
            <path d="M1017.5,92.5 L997.9,72.9" id="Shape" stroke="#69519F" stroke-width="3" sketch:type="MSShapeGroup"></path>
        </g>
        <path d="M455.7,630.8 L436,611.1 L521.1,526 L606.1,611 L586.4,630.7 C583.9,633.2 580.6,633.5 577.8,630.8 C575.5,628.5 537.4,590.7 525,577.2 C522.3,574.3 520.8,571.3 521.1,571.3 C521.5,571.3 520,574.3 517.2,577.3 C506.3,589.2 475.8,619.7 464.2,630.9 C461.6,633.6 459.1,634.2 455.7,630.8" id="logo" fill="#FCDB30" sketch:type="MSShapeGroup"></path>
        <g id="name-+-labs*-+-Bitmap" sketch:type="MSLayerGroup" transform="translate(405.000000, 73.000000)">
            <g id="name" fill="#E52C7A" sketch:type="MSShapeGroup">
                <path d="M9.11866847,20.6372403 C9.11866847,21.6634015 9.68347793,22.3475089 10.700135,22.3475089 L18.8333912,22.3475089 C19.1722768,22.3475089 19.5111625,22.3475089 19.7370863,22.233491 C19.7370863,22.4615268 19.6241244,22.8035805 19.6241244,23.1456342 L19.6241244,32.4951022 C19.6241244,33.5212633 20.1889339,34.0913528 21.2055909,34.0913528 L26.288876,34.0913528 L26.288876,15.6204526 L9.00570657,15.6204526 L9.00570657,20.6372403 L9.11866847,20.6372403 Z" id="Shape"></path>
                <path d="M0.194679005,2.50839385 L0.194679005,32.4951022 C0.194679005,33.5212633 0.759488465,34.0913528 1.88910738,34.0913528 L6.85943063,34.0913528 L6.85943063,0.798125317 L1.88910738,0.798125317 C0.759488465,0.798125317 0.194679005,1.48223273 0.194679005,2.50839385" id="Shape"></path>
                <path d="M21.3185528,0.798125317 C20.3018958,0.798125317 19.7370863,1.36821483 19.7370863,2.39437595 L19.7370863,11.7438439 C19.7370863,12.7700051 20.3018958,13.3400946 21.3185528,13.3400946 L26.4018379,13.3400946 L26.4018379,0.684107414 L21.3185528,0.684107414 L21.3185528,0.798125317 Z" id="Shape"></path>
                <path d="M38.9406079,12.884023 C38.9406079,8.77937848 40.973922,6.61303834 45.0405501,6.61303834 C49.1071782,6.61303834 51.1404923,8.77937848 51.1404923,12.884023 L51.1404923,22.0054552 C51.1404923,26.2241175 49.1071782,28.2764398 45.0405501,28.2764398 C40.973922,28.2764398 38.9406079,26.1100996 38.9406079,22.0054552 L38.9406079,12.884023 L38.9406079,12.884023 Z M45.0405501,0.342053707 C37.0202558,0.342053707 32.2758563,5.0167877 32.2758563,12.884023 L32.2758563,22.1194731 C32.2758563,29.8726904 37.0202558,34.5474244 45.0405501,34.5474244 C52.9478825,34.5474244 57.8052439,29.7586725 57.8052439,22.0054552 L57.8052439,12.7700051 C57.9182058,5.13080561 52.9478825,0.342053707 45.0405501,0.342053707 L45.0405501,0.342053707 Z" id="Shape"></path>
                <path d="M83.3346315,0.798125317 C82.3179744,0.798125317 81.6402031,1.36821483 81.6402031,2.39437595 L81.6402031,22.1194731 C81.6402031,26.1100996 79.7198509,28.1624219 75.8791466,28.1624219 C72.1514042,28.1624219 70.231052,26.1100996 70.231052,22.1194731 L70.231052,0.684107414 L65.1477669,0.684107414 C64.1311098,0.684107414 63.5663004,1.25419693 63.5663004,2.28035805 L63.5663004,22.3475089 C63.5663004,29.9867083 68.1977379,34.4334065 75.8791466,34.4334065 C83.5605552,34.4334065 88.3049547,29.7586725 88.3049547,22.3475089 L88.3049547,0.684107414 L83.3346315,0.684107414 L83.3346315,0.798125317 Z" id="Shape"></path>
                <path d="M107.847362,14.5942915 C102.312229,12.5419693 100.843725,11.7438439 100.843725,9.6915217 C100.843725,7.63919946 102.425191,6.49902044 105.249238,6.49902044 C107.621438,6.49902044 108.976981,7.41116365 109.993638,9.4634859 C110.332524,10.1475933 110.784371,10.489647 111.349181,10.489647 C111.575104,10.489647 111.91399,10.3756291 112.139914,10.2616112 L116.319504,8.66536058 L116.206542,8.32330687 C114.399152,2.96446546 110.897333,0.342053707 105.249238,0.342053707 C98.5844869,0.342053707 94.1789731,4.10464449 94.1789731,9.6915217 C94.1789731,15.5064347 97.7937536,18.0148286 103.780734,20.1811687 C108.412171,21.8914373 109.993638,22.8035805 109.993638,24.9699206 C109.993638,27.1362608 108.186248,28.5044756 105.249238,28.5044756 C102.199267,28.5044756 100.391877,27.3642966 99.7141058,25.0839385 C99.3752201,24.1717953 98.8104106,23.9437595 98.3585631,23.9437595 C98.1326393,23.9437595 97.9067155,23.9437595 97.5678298,24.0577774 L93.3882398,25.5400101 L93.5012017,25.8820638 C94.9697063,31.6969769 98.6974488,34.5474244 105.136277,34.5474244 C112.026952,34.5474244 116.65839,30.5567978 116.65839,24.6278669 C116.545428,19.9531329 113.834342,16.8746496 107.847362,14.5942915" id="Shape"></path>
                <path d="M123.549065,0.798125317 C122.532408,0.798125317 121.854637,1.36821483 121.854637,2.39437595 L121.854637,32.3810843 C121.854637,33.4072454 122.419446,33.9773349 123.549065,33.9773349 L128.519388,33.9773349 L128.519388,0.684107414 L123.549065,0.684107414 L123.549065,0.798125317 Z" id="Shape"></path>
                <path d="M156.646899,0.798125317 C155.630242,0.798125317 155.065433,1.36821483 155.065433,2.39437595 L155.065433,18.4709002 C155.065433,20.6372403 155.178395,22.6895626 155.291357,24.7418848 C154.387661,22.3475089 153.483966,19.9531329 152.467309,17.6727749 L144.334053,0.684107414 L137.443378,0.684107414 C136.313759,0.684107414 135.635987,1.36821483 135.635987,2.50839385 L135.635987,32.3810843 C135.635987,33.4072454 136.313759,33.9773349 137.330416,33.9773349 L142.074815,33.9773349 L142.074815,16.0765242 C142.074815,13.7961662 141.961853,11.7438439 141.848891,9.5775038 C142.752587,11.8578618 143.769244,14.4802736 144.898863,16.8746496 L152.580271,32.3810843 C153.032119,33.4072454 153.70989,33.863317 154.726547,33.863317 L161.391299,33.863317 L161.391299,0.570089512 L156.646899,0.570089512 L156.646899,0.798125317 Z" id="Shape"></path>
                <path d="M179.917049,15.3924168 L179.917049,19.7250971 C179.917049,20.7512582 180.481858,21.3213477 181.498516,21.3213477 L185.000334,21.3213477 C185.33922,21.3213477 185.678106,21.3213477 185.904029,21.2073298 C185.904029,21.4353656 185.791067,21.6634015 185.791067,22.0054552 L185.791067,23.4876879 C185.791067,26.5661713 183.757753,28.2764398 180.030011,28.2764398 C175.963383,28.2764398 173.930069,26.1100996 173.930069,21.8914373 L173.930069,12.884023 C173.930069,8.55134268 175.963383,6.49902044 180.030011,6.49902044 C182.741096,6.49902044 184.548487,7.63919946 185.33922,10.1475933 C185.678106,11.0597365 186.468839,11.4017902 187.485496,11.0597365 L192.003971,9.4634859 L191.89101,9.12143219 C190.083619,3.07848336 186.242915,0.228035805 180.030011,0.228035805 L179.917049,0.228035805 C172.009717,0.228035805 167.265317,4.9027698 167.265317,12.6559872 L167.265317,22.1194731 C167.265317,29.8726904 172.009717,34.5474244 180.030011,34.5474244 C187.259572,34.5474244 192.229895,29.8726904 192.229895,23.1456342 L192.229895,15.2783989 L179.917049,15.2783989 L179.917049,15.3924168 Z" id="Shape"></path>
            </g>
            <g id="labs*-+-Bitmap" transform="translate(87.129670, 60.005236)" fill="#69509E" sketch:type="MSShapeGroup">
                <path d="M14.2188064,95.4562951 C9.18316929,95.4562951 5.61631319,94.2459464 3.51813107,91.8252128 C1.41994895,89.4044791 0.370873624,85.4010182 0.370873624,79.8147097 L0.370873624,1.46712592 C0.370873624,0.536074516 0.837129323,0.0705557976 1.76965471,0.0705557976 L6.52551041,0.0705557976 C7.45803579,0.0705557976 7.92429149,0.536074516 7.92429149,1.46712592 L7.92429149,79.5353957 C7.92429149,82.7940756 8.48379833,85.0518414 9.6028288,86.3087608 C10.7218593,87.5656802 12.5402565,88.1941305 15.058075,88.1941305 L17.4360029,88.1941305 C18.3685283,88.1941305 18.834784,88.6596492 18.834784,89.5907006 L18.834784,94.059725 C18.834784,94.9907764 18.3685283,95.4562951 17.4360029,95.4562951 L14.2188064,95.4562951 Z M59.2595574,34.0072098 C55.1564457,34.0072098 51.8227174,34.4494525 49.2582726,35.3339514 C46.6938278,36.2184502 44.4324877,37.4520748 42.4741843,39.0348622 C41.6349115,39.6865982 40.9355279,39.6400463 40.3760127,38.8952052 L37.9980849,35.4037799 C37.5318222,34.6589388 37.6716989,34.0072125 38.4177192,33.4485817 C40.8422852,31.4002686 43.8030089,29.817505 47.2999791,28.7002433 C50.7969493,27.5829816 54.9233122,27.0243591 59.6791917,27.0243591 C63.9688085,27.0243591 67.6522285,27.3967741 70.7295623,28.1416152 C73.8068961,28.8864564 76.3246769,30.1433569 78.2829802,31.9123546 C80.2412835,33.6813522 81.6866762,35.962394 82.6192015,38.7555482 C83.5517269,41.5487024 84.0179826,44.9935409 84.0179826,49.0901671 L84.0179826,93.6407539 C84.0179826,94.5718054 83.5517269,95.0373241 82.6192015,95.0373241 L78.1431021,95.0373241 C77.2105767,95.0373241 76.744321,94.5718054 76.744321,93.6407539 L76.744321,86.6579033 L76.6044429,86.6579033 C75.2989073,89.4510575 72.8976905,91.7786511 69.4007203,93.6407539 C65.9037501,95.5028568 61.4043826,96.4338942 55.9024828,96.4338942 C49.1883,96.4338942 43.7797339,94.7813027 39.6766222,91.4760703 C35.5735105,88.1708378 33.5219854,83.2596153 33.5219854,76.7422555 C33.5219854,70.0386854 35.6900744,65.080911 40.0263174,61.8687837 C44.3625605,58.6566563 50.6336997,57.0506168 58.8399231,57.0506168 L75.7651742,57.0506168 C76.3246894,57.0506168 76.6044429,56.7713055 76.6044429,56.2126747 L76.6044429,49.3694811 C76.6044429,46.669432 76.3480022,44.3418384 75.8351133,42.3866305 C75.3222243,40.4314225 74.3897129,38.825383 73.0375511,37.5684636 C71.6853893,36.3115442 69.8903048,35.4037827 67.6522439,34.8451518 C65.414183,34.286521 62.6166488,34.0072098 59.2595574,34.0072098 L59.2595574,34.0072098 Z M57.441142,89.4510436 C63.2227994,89.4510436 67.8620436,88.1010393 71.3590138,85.4009902 C74.855984,82.7009412 76.6044429,79.0698952 76.6044429,74.5077433 L76.6044429,64.3127814 C76.6044429,63.7541506 76.3246894,63.4748393 75.7651742,63.4748393 L59.8190698,63.4748393 C53.104887,63.4748393 48.2791405,64.5455324 45.3416856,66.6869506 C42.4042306,68.8283688 40.9355251,72.1335517 40.9355251,76.6025985 C40.9355251,80.7923298 42.357605,83.981133 45.2018075,86.1691038 C48.0460099,88.3570746 52.1257473,89.4510436 57.441142,89.4510436 L57.441142,89.4510436 Z M136.891908,96.4338942 C131.296755,96.4338942 126.913952,95.409753 123.743365,93.3614399 C120.572779,91.3131268 118.194875,88.706222 116.609582,85.5406472 L116.469704,85.5406472 L116.469704,93.6407539 C116.469704,94.5718054 116.003448,95.0373241 115.070923,95.0373241 L110.315067,95.0373241 C109.382542,95.0373241 108.916286,94.5718054 108.916286,93.6407539 L108.916286,1.46712592 C108.916286,0.536074516 109.382542,0.0705557976 110.315067,0.0705557976 L115.070923,0.0705557976 C116.003448,0.0705557976 116.469704,0.536074516 116.469704,1.46712592 L116.469704,37.9176061 L116.609582,37.9176061 C118.194875,34.7520313 120.572779,32.1451265 123.743365,30.0968134 C126.913952,28.0485003 131.296755,27.0243591 136.891908,27.0243591 C148.455223,27.0243591 156.008565,32.3312725 159.552161,42.9452585 C160.391434,45.6453076 160.997567,48.5082477 161.370577,51.5341648 C161.743587,54.5600818 161.930089,57.9816444 161.930089,61.7989552 C161.930089,65.5231608 161.743587,68.8981715 161.370577,71.9240886 C160.997567,74.9500056 160.391434,77.8129457 159.552161,80.5129948 C156.008565,91.1269808 148.455223,96.4338942 136.891908,96.4338942 L136.891908,96.4338942 Z M135.353249,89.1717296 C139.82937,89.1717296 143.466165,88.1708643 146.263741,86.1691038 C149.061317,84.1673433 151.112842,81.2578513 152.418378,77.4405405 C153.164398,75.2991223 153.653967,72.9017009 153.887098,70.2482044 C154.120229,67.5947079 154.236793,64.7783197 154.236793,61.7989552 C154.236793,58.8195907 154.120229,55.9799265 153.887098,53.2798774 C153.653967,50.5798284 153.164398,48.159131 152.418378,46.0177128 C151.112842,42.200402 149.061317,39.2909101 146.263741,37.2891495 C143.466165,35.287389 139.82937,34.2865238 135.353249,34.2865238 C131.156884,34.2865238 127.590028,35.2641131 124.652573,37.219321 C121.715118,39.174529 119.593655,42.1072969 118.288119,46.0177128 C117.635351,47.8798156 117.169096,50.0677536 116.889338,52.5815924 C116.609581,55.0954312 116.469704,58.1678547 116.469704,61.7989552 C116.469704,65.4300556 116.609581,68.4792033 116.889338,70.9464895 C117.169096,73.4137757 117.635351,75.5784377 118.288119,77.4405405 C119.593655,81.3509564 121.715118,84.2837244 124.652573,86.2389323 C127.590028,88.1941402 131.156884,89.1717296 135.353249,89.1717296 L135.353249,89.1717296 Z M204.0334,96.4338942 C201.049319,96.4338942 198.251784,96.154583 195.640713,95.5959521 C193.029642,95.0373213 190.628425,94.2924913 188.436991,93.3614399 C186.245556,92.4303885 184.287282,91.4295233 182.56211,90.3588142 C180.836938,89.288105 179.321607,88.1941361 178.016072,87.0768744 C177.363304,86.4251384 177.363304,85.7734122 178.016072,85.1216762 L181.09339,81.6302509 C181.652905,81.0716201 182.305663,81.0716201 183.051684,81.6302509 C185.662755,83.7716691 188.786668,85.6104681 192.423517,87.1467029 C196.060366,88.6829377 200.163416,89.4510436 204.73279,89.4510436 C210.6077,89.4510436 214.967191,88.2872468 217.811394,85.9596183 C220.655596,83.6319898 222.077676,80.5130144 222.077676,76.6025985 C222.077676,74.9267059 221.867861,73.437046 221.448224,72.1335741 C221.028588,70.8301021 220.235953,69.6895812 219.070297,68.7119773 C217.90464,67.7343733 216.342683,66.9429915 214.38438,66.3378081 C212.426077,65.7326247 209.908296,65.24383 206.830962,64.8714094 L200.116813,64.1731244 C193.868893,63.5213884 189.066459,61.7291413 185.709368,58.7963294 C182.352276,55.8635175 180.673756,51.7436768 180.673756,46.4366838 C180.673756,40.2917446 182.748594,35.5201777 186.898332,32.1218401 C191.04807,28.7235025 196.806327,27.0243591 204.173278,27.0243591 C208.742652,27.0243591 212.915641,27.6528094 216.692369,28.9097288 C220.469097,30.1666482 223.709574,31.679584 226.413897,33.4485817 C227.159918,34.0072125 227.253169,34.6589388 226.693653,35.4037799 L224.175848,38.7555482 C223.709585,39.5003893 223.056827,39.6400449 222.217554,39.1745192 C220.072746,37.8710472 217.34515,36.6839745 214.034685,35.6132654 C210.72422,34.5425563 207.29724,34.0072098 203.753644,34.0072098 C198.624754,34.0072098 194.754832,35.0546269 192.143761,37.1494925 C189.53269,39.2443582 188.227174,42.1538502 188.227174,45.8780558 C188.227174,49.1367357 189.3695,51.6738127 191.654187,53.489363 C193.938874,55.3049132 197.925361,56.4919859 203.613766,57.0506168 L210.327915,57.7489018 C216.855592,58.4006378 221.704652,60.2394367 224.875238,63.2653538 C228.045824,66.2912709 229.631094,70.4111115 229.631094,75.6249994 C229.631094,82.0492541 227.463005,87.1234081 223.126762,90.8476137 C218.790519,94.5718193 212.426128,96.4338942 204.0334,96.4338942 L204.0334,96.4338942 Z M260.823912,38.8952052 C259.891387,38.8952052 259.425131,38.4296865 259.425131,37.4986351 L259.425131,24.0915619 L247.67537,30.7950985 C246.836097,31.2606242 246.183339,31.0744167 245.717076,30.2364704 L244.598051,28.1416152 C244.038536,27.303669 244.225038,26.6519428 245.157564,26.1864171 L256.767447,19.4828805 L245.157564,12.7793439 C244.225038,12.3138182 244.038536,11.662092 244.598051,10.8241457 L245.717076,8.72929055 C246.183339,7.89134429 246.836097,7.7051368 247.67537,8.1706625 L259.425131,15.0138561 L259.425131,1.46712592 C259.425131,0.536074516 259.891387,0.0705557976 260.823912,0.0705557976 L263.20184,0.0705557976 C264.134365,0.0705557976 264.600621,0.536074516 264.600621,1.46712592 L264.600621,15.0138561 L276.350382,8.1706625 C277.189655,7.7051368 277.842413,7.89134429 278.308676,8.72929055 L279.4277,10.8241457 C279.987216,11.662092 279.800713,12.3138182 278.868188,12.7793439 L267.118427,19.4828805 L278.868188,26.1864171 C279.800713,26.6519428 279.987216,27.303669 279.4277,28.1416152 L278.308676,30.2364704 C277.842413,31.0744167 277.189655,31.2606242 276.350382,30.7950985 L264.600621,23.9519049 L264.600621,37.4986351 C264.600621,38.4296865 264.134365,38.8952052 263.20184,38.8952052 L260.823912,38.8952052 Z" id="labs*"></path>
            </g>
        </g>
    </g>
</svg>