<?xml version="1.0" encoding="UTF-8" standalone="no"?>
<svg width="26px" height="11px" viewBox="0 0 26 11" version="1.1" xmlns="http://www.w3.org/2000/svg" xmlns:xlink="http://www.w3.org/1999/xlink" xmlns:sketch="http://www.bohemiancoding.com/sketch/ns">
    <!-- Generator: Sketch 3.0.4 (8054) - http://www.bohemiancoding.com/sketch -->
    <title>SoundCloud_logo</title>
    <desc>Created with Sketch.</desc>
    <defs></defs>
    <g id="Page-1" stroke="none" stroke-width="1" fill="none" fill-rule="evenodd" sketch:type="MSPage">
        <g id="Artboard-1" sketch:type="MSArtboardGroup" transform="translate(-39.000000, -568.000000)" fill="#BBBBC8">
            <g id="SoundCloud_logo" sketch:type="MSLayerGroup" transform="translate(39.000000, 568.000000)">
                <path d="M0.294387097,6.51648302 C0.240150538,6.51648302 0.197096774,6.55695472 0.190107527,6.61469434 L0,8.00826981 L0.190107527,9.37783208 C0.197096774,9.4355717 0.240150538,9.47577358 0.294387097,9.47577358 C0.346946237,9.47577358 0.38972043,9.43584151 0.398107527,9.3783717 L0.398107527,9.3783717 L0.398107527,9.37810189 C0.398107527,9.37810189 0.398107527,9.37810189 0.398107527,9.3783717 L0.62344086,8.00826981 L0.398107527,6.61442453 C0.39,6.55695472 0.346666667,6.51648302 0.294387097,6.51648302 L0.294387097,6.51648302 Z M1.36346237,5.75507547 C1.35451613,5.69517736 1.31006452,5.65389623 1.25526882,5.65389623 C1.20019355,5.65389623 1.15462366,5.69652642 1.14707527,5.75507547 C1.14707527,5.75561509 0.891548387,8.00826981 0.891548387,8.00826981 L1.14707527,10.2115491 C1.15434409,10.2706377 1.19991398,10.3132679 1.25526882,10.3132679 C1.30978495,10.3132679 1.35423656,10.271717 1.3631828,10.2120887 L1.65393548,8.00826981 L1.36346237,5.75507547 L1.36346237,5.75507547 Z M5.3903871,3.67671887 C5.28554839,3.67671887 5.19888172,3.75955094 5.19384946,3.86477736 L4.99032258,8.01015849 L5.19384946,10.6891151 C5.19916129,10.7938019 5.28554839,10.8763642 5.3903871,10.8763642 C5.49466667,10.8763642 5.58105376,10.7935321 5.5872043,10.6885755 L5.5872043,10.6893849 L5.81729032,8.01015849 L5.5872043,3.86477736 C5.58105376,3.75955094 5.49466667,3.67671887 5.3903871,3.67671887 L5.3903871,3.67671887 Z M3.30619355,5.11751132 C3.22567742,5.11751132 3.15997849,5.17956792 3.15354839,5.2624 L2.92430108,8.00907925 L3.15354839,10.6664509 C3.15969892,10.7487434 3.22567742,10.8108 3.30619355,10.8108 C3.38587097,10.8108 3.45156989,10.7487434 3.45855914,10.6664509 L3.71911828,8.00907925 L3.45855914,5.26186038 C3.45156989,5.17956792 3.38587097,5.11751132 3.30619355,5.11751132 L3.30619355,5.11751132 Z M7.5084086,10.8760943 C7.6384086,10.8760943 7.74408602,10.7749151 7.74939785,10.6454057 L7.94901075,8.01150755 L7.74967742,2.49251698 C7.74436559,2.36300755 7.63868817,2.2618283 7.50868817,2.2618283 C7.37756989,2.2618283 7.2716129,2.36327736 7.26741935,2.49278679 C7.26741935,2.4930566 7.09045161,8.01123774 7.09045161,8.01123774 L7.26741935,10.6462151 C7.2716129,10.7746453 7.37756989,10.8760943 7.5084086,10.8760943 L7.5084086,10.8760943 Z M11.8445376,10.8885057 C12.0234624,10.8885057 12.1710753,10.7463151 12.1744301,10.5714774 L12.1744301,10.573366 L12.1744301,10.5714774 L12.3136559,8.01312642 L12.1744301,1.63910377 C12.1713548,1.46453585 12.0234624,1.32207547 11.8445376,1.32207547 C11.6653333,1.32207547 11.5174409,1.46426604 11.5146452,1.63937358 L11.3902366,8.01096792 C11.3902366,8.01501509 11.5146452,10.5730962 11.5146452,10.5730962 C11.5174409,10.7463151 11.6656129,10.8885057 11.8445376,10.8885057 L11.8445376,10.8885057 Z M9.65997849,10.8785226 C9.81569892,10.8785226 9.94122581,10.757917 9.94541935,10.6041245 L9.94541935,10.6060132 L10.1148387,8.01204717 L9.94513978,2.45312453 C9.94094624,2.29933208 9.81541935,2.17899623 9.65969892,2.17899623 C9.50286022,2.17899623 9.37733333,2.29933208 9.37397849,2.45312453 L9.22329032,8.01231698 L9.37425806,10.6057434 C9.3776129,10.757917 9.50313978,10.8785226 9.65997849,10.8785226 L9.65997849,10.8785226 Z M4.34423656,10.8542396 C4.43677419,10.8542396 4.51169892,10.7827396 4.51868817,10.6885755 L4.76415054,8.00907925 L4.51868817,5.4601717 C4.51197849,5.36600755 4.43705376,5.29504717 4.34423656,5.29504717 C4.25030108,5.29504717 4.17537634,5.36654717 4.16950538,5.46125094 L3.95339785,8.00907925 L4.16950538,10.6883057 C4.17565591,10.7827396 4.25030108,10.8542396 4.34423656,10.8542396 L4.34423656,10.8542396 Z M2.27653763,10.7074623 C2.34419355,10.7074623 2.39898925,10.6559283 2.4068172,10.5846981 L2.68247312,8.00853962 L2.40709677,5.33524906 C2.39898925,5.26374906 2.34419355,5.21221509 2.27653763,5.21221509 C2.20804301,5.21221509 2.15324731,5.26401887 2.14625806,5.33524906 C2.14625806,5.33551887 1.9035914,8.00853962 1.9035914,8.00853962 L2.14625806,10.5841585 C2.15296774,10.6556585 2.20776344,10.7074623 2.27653763,10.7074623 L2.27653763,10.7074623 Z M10.7480645,2.36057925 C10.5789247,2.36057925 10.4433333,2.49035849 10.4399785,2.65656226 L10.3024301,8.01258679 L10.4399785,10.5898245 C10.4433333,10.7538698 10.5786452,10.8836491 10.7480645,10.8836491 C10.9169247,10.8836491 11.0516774,10.7541396 11.0555914,10.5879358 L11.0555914,10.5900943 L11.209914,8.0128566 L11.0555914,2.65602264 C11.0516774,2.49035849 10.9169247,2.36057925 10.7480645,2.36057925 L10.7480645,2.36057925 Z M6.44548387,10.8814906 C6.56234409,10.8814906 6.6587957,10.7894849 6.6643871,10.672117 L6.87909677,8.01096792 L6.6643871,2.91746981 C6.65851613,2.79983208 6.56234409,2.70809623 6.44548387,2.70809623 C6.32750538,2.70809623 6.23133333,2.80010189 6.22630108,2.91746981 C6.22630108,2.91773962 6.03619355,8.01096792 6.03619355,8.01096792 L6.22658065,10.6731962 C6.23133333,10.7894849 6.32750538,10.8814906 6.44548387,10.8814906 L6.44548387,10.8814906 Z M8.84307527,10.6302962 L8.84307527,10.6289472 L9.0275914,8.01177736 L8.84307527,2.30688679 C8.83860215,2.16523585 8.72286022,2.05407358 8.58,2.05407358 C8.43630108,2.05407358 8.32055914,2.16496604 8.31664516,2.30688679 L8.1528172,8.01150755 L8.31692473,10.6300264 C8.32083871,10.7703283 8.43658065,10.8812208 8.58,10.8812208 C8.72313978,10.8812208 8.83832258,10.7703283 8.84307527,10.629217 L8.84307527,10.6302962 L8.84307527,10.6302962 Z M21.561828,4.96290943 C21.3074194,2.18169434 18.8908172,0 15.9430323,0 C15.2217419,0 14.5186237,0.137064151 13.8976989,0.368832075 C13.6564301,0.458949057 13.592129,0.551764151 13.5898925,0.731728302 L13.5898925,10.5258792 C13.5924086,10.7147472 13.7442151,10.8720472 13.9351613,10.8906642 C13.9432688,10.8914736 22.7413333,10.8957906 22.7983656,10.8957906 C24.564129,10.8957906 25.9958065,9.51408679 25.9958065,7.80968868 C25.9958065,6.10529057 24.5644086,4.72331698 22.7986452,4.72331698 C22.3605591,4.72331698 21.9426022,4.80884717 21.561828,4.96290943 Z M12.9362581,0.72309434 C12.7441935,0.72309434 12.5865161,0.875267925 12.5837204,1.06224717 L12.4394624,8.01393585 L12.584,10.5369415 C12.5865161,10.7212226 12.7441935,10.8731264 12.9362581,10.8731264 C13.1277634,10.8731264 13.2854409,10.7212226 13.2882366,10.5342434 L13.2882366,10.5372113 L13.4450753,8.01393585 L13.2882366,1.06170755 C13.2854409,0.875267925 13.1277634,0.72309434 12.9362581,0.72309434 L12.9362581,0.72309434 Z" id="Shape" sketch:type="MSShapeGroup"></path>
            </g>
        </g>
    </g>
</svg>